<mxfile host="app.diagrams.net" modified="2024-03-15T18:45:17.855Z" agent="Mozilla/5.0 (X11; Linux x86_64) AppleWebKit/537.36 (KHTML, like Gecko) Chrome/114.0.0.0 Safari/537.36" etag="0uVRHtVqiDCmICp-FK0y" version="24.0.7" type="github">
  <diagram id="prtHgNgQTEPvFCAcTncT" name="Page-1">
    <mxGraphModel dx="1166" dy="2081" grid="0" gridSize="15" guides="1" tooltips="1" connect="1" arrows="1" fold="1" page="0" pageScale="1" pageWidth="827" pageHeight="1169" math="0" shadow="1">
      <root>
        <mxCell id="0" />
        <mxCell id="1" parent="0" />
        <mxCell id="mm9sd67sM0A_G5Sb0UkS-7" style="edgeStyle=orthogonalEdgeStyle;rounded=0;orthogonalLoop=1;jettySize=auto;html=1;entryX=0;entryY=0.5;entryDx=0;entryDy=0;fontSize=18;" parent="1" target="mm9sd67sM0A_G5Sb0UkS-6" edge="1">
          <mxGeometry relative="1" as="geometry">
            <mxPoint x="64" y="361" as="targetPoint" />
            <mxPoint x="54" y="361" as="sourcePoint" />
          </mxGeometry>
        </mxCell>
        <mxCell id="mm9sd67sM0A_G5Sb0UkS-6" value="" style="ellipse;whiteSpace=wrap;html=1;aspect=fixed;hachureGap=4;fillColor=#dae8fc;strokeColor=#6c8ebf;rounded=0;fontSize=18;" parent="1" vertex="1">
          <mxGeometry x="104" y="321" width="80" height="80" as="geometry" />
        </mxCell>
        <mxCell id="mm9sd67sM0A_G5Sb0UkS-9" style="edgeStyle=orthogonalEdgeStyle;rounded=0;orthogonalLoop=1;jettySize=auto;html=1;exitX=1;exitY=0.5;exitDx=0;exitDy=0;entryX=0;entryY=0.5;entryDx=0;entryDy=0;fontSize=18;" parent="1" source="mm9sd67sM0A_G5Sb0UkS-6" target="mm9sd67sM0A_G5Sb0UkS-8" edge="1">
          <mxGeometry relative="1" as="geometry" />
        </mxCell>
        <mxCell id="mm9sd67sM0A_G5Sb0UkS-20" style="edgeStyle=orthogonalEdgeStyle;rounded=0;orthogonalLoop=1;jettySize=auto;html=1;exitX=1;exitY=0.5;exitDx=0;exitDy=0;entryX=0;entryY=0.5;entryDx=0;entryDy=0;fontSize=18;" parent="1" target="mm9sd67sM0A_G5Sb0UkS-22" edge="1">
          <mxGeometry relative="1" as="geometry">
            <mxPoint x="334" y="361" as="sourcePoint" />
          </mxGeometry>
        </mxCell>
        <mxCell id="mm9sd67sM0A_G5Sb0UkS-21" value="" style="group;fontSize=18;" parent="1" vertex="1" connectable="0">
          <mxGeometry x="404" y="321" width="80" height="80" as="geometry" />
        </mxCell>
        <mxCell id="mm9sd67sM0A_G5Sb0UkS-22" value="du" style="ellipse;whiteSpace=wrap;html=1;aspect=fixed;hachureGap=4;fillColor=#dae8fc;strokeColor=#6c8ebf;rounded=0;fontSize=18;" parent="mm9sd67sM0A_G5Sb0UkS-21" vertex="1">
          <mxGeometry width="80" height="80" as="geometry" />
        </mxCell>
        <mxCell id="mm9sd67sM0A_G5Sb0UkS-23" value="u" style="text;html=1;align=center;verticalAlign=middle;resizable=0;points=[];autosize=1;strokeColor=none;fillColor=none;fontSize=18;" parent="1" vertex="1">
          <mxGeometry x="345.5" y="315" width="45" height="45" as="geometry" />
        </mxCell>
        <mxCell id="mm9sd67sM0A_G5Sb0UkS-24" value="" style="group;fontSize=18;" parent="1" vertex="1" connectable="0">
          <mxGeometry x="555.5" y="321" width="80" height="80" as="geometry" />
        </mxCell>
        <mxCell id="mm9sd67sM0A_G5Sb0UkS-31" style="edgeStyle=orthogonalEdgeStyle;rounded=0;orthogonalLoop=1;jettySize=auto;html=1;exitX=1;exitY=0.5;exitDx=0;exitDy=0;fontSize=18;" parent="mm9sd67sM0A_G5Sb0UkS-24" source="mm9sd67sM0A_G5Sb0UkS-25" edge="1">
          <mxGeometry relative="1" as="geometry">
            <mxPoint x="138.5" y="40" as="targetPoint" />
          </mxGeometry>
        </mxCell>
        <mxCell id="mm9sd67sM0A_G5Sb0UkS-25" value="dud" style="ellipse;whiteSpace=wrap;html=1;aspect=fixed;hachureGap=4;fillColor=#dae8fc;strokeColor=#6c8ebf;rounded=0;fontSize=18;" parent="mm9sd67sM0A_G5Sb0UkS-24" vertex="1">
          <mxGeometry width="80" height="80" as="geometry" />
        </mxCell>
        <mxCell id="mm9sd67sM0A_G5Sb0UkS-27" style="edgeStyle=orthogonalEdgeStyle;rounded=0;orthogonalLoop=1;jettySize=auto;html=1;exitX=1;exitY=0.5;exitDx=0;exitDy=0;entryX=0;entryY=0.5;entryDx=0;entryDy=0;fontSize=18;" parent="1" source="mm9sd67sM0A_G5Sb0UkS-22" target="mm9sd67sM0A_G5Sb0UkS-25" edge="1">
          <mxGeometry relative="1" as="geometry" />
        </mxCell>
        <mxCell id="mm9sd67sM0A_G5Sb0UkS-28" value="d" style="text;html=1;align=center;verticalAlign=middle;resizable=0;points=[];autosize=1;strokeColor=none;fillColor=none;fontSize=18;" parent="1" vertex="1">
          <mxGeometry x="493" y="313" width="45" height="45" as="geometry" />
        </mxCell>
        <mxCell id="mm9sd67sM0A_G5Sb0UkS-32" value="e" style="text;html=1;align=center;verticalAlign=middle;resizable=0;points=[];autosize=1;strokeColor=none;fillColor=none;fontSize=18;" parent="1" vertex="1">
          <mxGeometry x="643" y="313" width="45" height="45" as="geometry" />
        </mxCell>
        <mxCell id="mm9sd67sM0A_G5Sb0UkS-35" value="" style="ellipse;whiteSpace=wrap;html=1;aspect=fixed;hachureGap=4;fillColor=#dae8fc;strokeColor=#6c8ebf;rounded=0;fontSize=18;" parent="1" vertex="1">
          <mxGeometry x="694" y="321" width="80" height="80" as="geometry" />
        </mxCell>
        <mxCell id="mm9sd67sM0A_G5Sb0UkS-36" value="" style="ellipse;whiteSpace=wrap;html=1;aspect=fixed;hachureGap=4;rounded=0;fontSize=18;" parent="1" vertex="1">
          <mxGeometry x="709" y="336" width="50" height="50" as="geometry" />
        </mxCell>
        <mxCell id="mm9sd67sM0A_G5Sb0UkS-37" style="edgeStyle=orthogonalEdgeStyle;rounded=0;orthogonalLoop=1;jettySize=auto;html=1;exitX=0.5;exitY=0;exitDx=0;exitDy=0;entryX=0.5;entryY=0;entryDx=0;entryDy=0;fontSize=18;" parent="1" source="mm9sd67sM0A_G5Sb0UkS-8" target="mm9sd67sM0A_G5Sb0UkS-6" edge="1">
          <mxGeometry relative="1" as="geometry">
            <Array as="points">
              <mxPoint x="294" y="271" />
              <mxPoint x="144" y="271" />
            </Array>
          </mxGeometry>
        </mxCell>
        <mxCell id="mm9sd67sM0A_G5Sb0UkS-38" style="edgeStyle=orthogonalEdgeStyle;rounded=0;orthogonalLoop=1;jettySize=auto;html=1;exitX=0.5;exitY=1;exitDx=0;exitDy=0;entryX=0;entryY=1;entryDx=0;entryDy=0;curved=1;fontSize=18;" parent="1" source="mm9sd67sM0A_G5Sb0UkS-6" target="mm9sd67sM0A_G5Sb0UkS-6" edge="1">
          <mxGeometry relative="1" as="geometry">
            <Array as="points">
              <mxPoint x="144" y="431" />
              <mxPoint x="116" y="431" />
            </Array>
          </mxGeometry>
        </mxCell>
        <mxCell id="mm9sd67sM0A_G5Sb0UkS-39" style="edgeStyle=orthogonalEdgeStyle;rounded=0;orthogonalLoop=1;jettySize=auto;html=1;exitX=0.5;exitY=0;exitDx=0;exitDy=0;entryX=1;entryY=0;entryDx=0;entryDy=0;curved=1;fontSize=18;" parent="1" source="mm9sd67sM0A_G5Sb0UkS-35" target="mm9sd67sM0A_G5Sb0UkS-35" edge="1">
          <mxGeometry relative="1" as="geometry">
            <Array as="points">
              <mxPoint x="734" y="291" />
              <mxPoint x="762" y="291" />
            </Array>
          </mxGeometry>
        </mxCell>
        <mxCell id="mm9sd67sM0A_G5Sb0UkS-40" value="∑" style="text;html=1;align=center;verticalAlign=middle;resizable=0;points=[];autosize=1;strokeColor=none;fillColor=none;fontSize=18;" parent="1" vertex="1">
          <mxGeometry x="729" y="237" width="45" height="45" as="geometry" />
        </mxCell>
        <mxCell id="mm9sd67sM0A_G5Sb0UkS-42" value="∑- u" style="text;html=1;align=center;verticalAlign=middle;resizable=0;points=[];autosize=1;strokeColor=none;fillColor=none;strokeWidth=1;fontSize=18;" parent="1" vertex="1">
          <mxGeometry x="173" y="223" width="75" height="45" as="geometry" />
        </mxCell>
        <mxCell id="mm9sd67sM0A_G5Sb0UkS-11" value="" style="group;fontSize=18;" parent="1" vertex="1" connectable="0">
          <mxGeometry x="254" y="321" width="80" height="80" as="geometry" />
        </mxCell>
        <mxCell id="mm9sd67sM0A_G5Sb0UkS-8" value="d" style="ellipse;whiteSpace=wrap;html=1;aspect=fixed;hachureGap=4;fillColor=#dae8fc;strokeColor=#6c8ebf;rounded=0;fontSize=18;" parent="mm9sd67sM0A_G5Sb0UkS-11" vertex="1">
          <mxGeometry width="80" height="80" as="geometry" />
        </mxCell>
        <mxCell id="mm9sd67sM0A_G5Sb0UkS-14" value="d" style="text;html=1;align=center;verticalAlign=middle;resizable=0;points=[];autosize=1;strokeColor=none;fillColor=none;fontSize=18;" parent="1" vertex="1">
          <mxGeometry x="197" y="315" width="45" height="45" as="geometry" />
        </mxCell>
        <mxCell id="mm9sd67sM0A_G5Sb0UkS-44" value="∑- d" style="text;html=1;align=center;verticalAlign=middle;resizable=0;points=[];autosize=1;strokeColor=none;fillColor=none;fontSize=18;" parent="1" vertex="1">
          <mxGeometry x="90" y="432" width="75" height="45" as="geometry" />
        </mxCell>
        <mxCell id="M_DK1BdY7dgoIv5enWq1-1" style="edgeStyle=orthogonalEdgeStyle;rounded=0;orthogonalLoop=1;jettySize=auto;html=1;exitX=0.5;exitY=1;exitDx=0;exitDy=0;entryX=1;entryY=1;entryDx=0;entryDy=0;" parent="1" source="mm9sd67sM0A_G5Sb0UkS-22" target="mm9sd67sM0A_G5Sb0UkS-6" edge="1">
          <mxGeometry relative="1" as="geometry">
            <Array as="points">
              <mxPoint x="444" y="461" />
              <mxPoint x="172" y="461" />
            </Array>
          </mxGeometry>
        </mxCell>
        <mxCell id="M_DK1BdY7dgoIv5enWq1-2" value="∑- d" style="text;html=1;align=center;verticalAlign=middle;resizable=0;points=[];autosize=1;strokeColor=none;fillColor=none;fontSize=18;" parent="1" vertex="1">
          <mxGeometry x="374" y="461" width="75" height="45" as="geometry" />
        </mxCell>
        <mxCell id="M_DK1BdY7dgoIv5enWq1-3" style="edgeStyle=orthogonalEdgeStyle;rounded=0;orthogonalLoop=1;jettySize=auto;html=1;exitX=0.5;exitY=0;exitDx=0;exitDy=0;entryX=0;entryY=0;entryDx=0;entryDy=0;" parent="1" source="mm9sd67sM0A_G5Sb0UkS-25" target="mm9sd67sM0A_G5Sb0UkS-6" edge="1">
          <mxGeometry relative="1" as="geometry">
            <Array as="points">
              <mxPoint x="596" y="206" />
              <mxPoint x="116" y="206" />
            </Array>
          </mxGeometry>
        </mxCell>
        <mxCell id="M_DK1BdY7dgoIv5enWq1-4" value="∑- e" style="text;html=1;align=center;verticalAlign=middle;resizable=0;points=[];autosize=1;strokeColor=none;fillColor=none;fontSize=18;" parent="1" vertex="1">
          <mxGeometry x="524" y="161" width="75" height="45" as="geometry" />
        </mxCell>
        <mxCell id="M_DK1BdY7dgoIv5enWq1-35" style="edgeStyle=orthogonalEdgeStyle;rounded=0;orthogonalLoop=1;jettySize=auto;html=1;exitX=1;exitY=0.5;exitDx=0;exitDy=0;entryX=0;entryY=0.5;entryDx=0;entryDy=0;fontSize=18;" parent="1" edge="1">
          <mxGeometry relative="1" as="geometry">
            <mxPoint x="181.5" y="831" as="sourcePoint" />
            <mxPoint x="251.5" y="831" as="targetPoint" />
          </mxGeometry>
        </mxCell>
        <mxCell id="M_DK1BdY7dgoIv5enWq1-36" style="edgeStyle=orthogonalEdgeStyle;rounded=0;orthogonalLoop=1;jettySize=auto;html=1;exitX=1;exitY=0.5;exitDx=0;exitDy=0;entryX=0;entryY=0.5;entryDx=0;entryDy=0;fontSize=18;" parent="1" edge="1">
          <mxGeometry relative="1" as="geometry">
            <mxPoint x="331.5" y="831" as="sourcePoint" />
            <mxPoint x="401.5" y="831" as="targetPoint" />
          </mxGeometry>
        </mxCell>
        <mxCell id="M_DK1BdY7dgoIv5enWq1-39" value="u" style="text;html=1;align=center;verticalAlign=middle;resizable=0;points=[];autosize=1;strokeColor=none;fillColor=none;fontSize=18;" parent="1" vertex="1">
          <mxGeometry x="343" y="785" width="45" height="45" as="geometry" />
        </mxCell>
        <mxCell id="M_DK1BdY7dgoIv5enWq1-43" style="edgeStyle=orthogonalEdgeStyle;rounded=0;orthogonalLoop=1;jettySize=auto;html=1;exitX=1;exitY=0.5;exitDx=0;exitDy=0;entryX=0;entryY=0.5;entryDx=0;entryDy=0;fontSize=18;" parent="1" edge="1">
          <mxGeometry relative="1" as="geometry">
            <mxPoint x="481.5" y="831" as="sourcePoint" />
            <mxPoint x="553" y="831" as="targetPoint" />
          </mxGeometry>
        </mxCell>
        <mxCell id="M_DK1BdY7dgoIv5enWq1-44" value="d" style="text;html=1;align=center;verticalAlign=middle;resizable=0;points=[];autosize=1;strokeColor=none;fillColor=none;fontSize=18;" parent="1" vertex="1">
          <mxGeometry x="490.5" y="783" width="45" height="45" as="geometry" />
        </mxCell>
        <mxCell id="M_DK1BdY7dgoIv5enWq1-45" value="e" style="text;html=1;align=center;verticalAlign=middle;resizable=0;points=[];autosize=1;strokeColor=none;fillColor=none;fontSize=18;" parent="1" vertex="1">
          <mxGeometry x="640.5" y="783" width="45" height="45" as="geometry" />
        </mxCell>
        <mxCell id="M_DK1BdY7dgoIv5enWq1-48" style="edgeStyle=orthogonalEdgeStyle;rounded=0;orthogonalLoop=1;jettySize=auto;html=1;exitX=0.5;exitY=0;exitDx=0;exitDy=0;entryX=0.5;entryY=0;entryDx=0;entryDy=0;fontSize=18;" parent="1" edge="1">
          <mxGeometry relative="1" as="geometry">
            <Array as="points">
              <mxPoint x="291.5" y="741" />
              <mxPoint x="141.5" y="741" />
            </Array>
            <mxPoint x="291.5" y="791" as="sourcePoint" />
            <mxPoint x="141.5" y="791" as="targetPoint" />
          </mxGeometry>
        </mxCell>
        <mxCell id="M_DK1BdY7dgoIv5enWq1-51" value="∑" style="text;html=1;align=center;verticalAlign=middle;resizable=0;points=[];autosize=1;strokeColor=none;fillColor=none;fontSize=18;" parent="1" vertex="1">
          <mxGeometry x="726.5" y="707" width="45" height="45" as="geometry" />
        </mxCell>
        <mxCell id="M_DK1BdY7dgoIv5enWq1-52" value="∑- u" style="text;html=1;align=center;verticalAlign=middle;resizable=0;points=[];autosize=1;strokeColor=none;fillColor=none;strokeWidth=1;fontSize=18;" parent="1" vertex="1">
          <mxGeometry x="170.5" y="693" width="75" height="45" as="geometry" />
        </mxCell>
        <mxCell id="M_DK1BdY7dgoIv5enWq1-55" value="d" style="text;html=1;align=center;verticalAlign=middle;resizable=0;points=[];autosize=1;strokeColor=none;fillColor=none;fontSize=18;" parent="1" vertex="1">
          <mxGeometry x="194.5" y="785" width="45" height="45" as="geometry" />
        </mxCell>
        <mxCell id="M_DK1BdY7dgoIv5enWq1-56" value="∑- d" style="text;html=1;align=center;verticalAlign=middle;resizable=0;points=[];autosize=1;strokeColor=none;fillColor=none;fontSize=18;" parent="1" vertex="1">
          <mxGeometry x="87.5" y="902" width="75" height="45" as="geometry" />
        </mxCell>
        <mxCell id="M_DK1BdY7dgoIv5enWq1-57" style="edgeStyle=orthogonalEdgeStyle;rounded=0;orthogonalLoop=1;jettySize=auto;html=1;exitX=0.5;exitY=1;exitDx=0;exitDy=0;entryX=1;entryY=1;entryDx=0;entryDy=0;" parent="1" edge="1">
          <mxGeometry relative="1" as="geometry">
            <Array as="points">
              <mxPoint x="441.5" y="931" />
              <mxPoint x="169.5" y="931" />
            </Array>
            <mxPoint x="441.5" y="871" as="sourcePoint" />
            <mxPoint x="169.78427124746167" y="859.2842712474619" as="targetPoint" />
          </mxGeometry>
        </mxCell>
        <mxCell id="M_DK1BdY7dgoIv5enWq1-58" value="∑- d" style="text;html=1;align=center;verticalAlign=middle;resizable=0;points=[];autosize=1;strokeColor=none;fillColor=none;fontSize=18;" parent="1" vertex="1">
          <mxGeometry x="371.5" y="931" width="75" height="45" as="geometry" />
        </mxCell>
        <mxCell id="M_DK1BdY7dgoIv5enWq1-59" style="edgeStyle=orthogonalEdgeStyle;rounded=0;orthogonalLoop=1;jettySize=auto;html=1;exitX=0.5;exitY=0;exitDx=0;exitDy=0;entryX=0;entryY=0;entryDx=0;entryDy=0;" parent="1" edge="1">
          <mxGeometry relative="1" as="geometry">
            <Array as="points">
              <mxPoint x="593.5" y="676" />
              <mxPoint x="113.5" y="676" />
            </Array>
            <mxPoint x="593" y="791" as="sourcePoint" />
            <mxPoint x="113.21572875253833" y="802.7157287525381" as="targetPoint" />
          </mxGeometry>
        </mxCell>
        <mxCell id="M_DK1BdY7dgoIv5enWq1-60" value="∑- e" style="text;html=1;align=center;verticalAlign=middle;resizable=0;points=[];autosize=1;strokeColor=none;fillColor=none;fontSize=18;" parent="1" vertex="1">
          <mxGeometry x="521.5" y="631" width="75" height="45" as="geometry" />
        </mxCell>
        <mxCell id="M_DK1BdY7dgoIv5enWq1-65" value="" style="group" parent="1" vertex="1" connectable="0">
          <mxGeometry x="551" y="791" width="80" height="80" as="geometry" />
        </mxCell>
        <mxCell id="M_DK1BdY7dgoIv5enWq1-66" value="" style="ellipse;whiteSpace=wrap;html=1;aspect=fixed;hachureGap=4;fillColor=#dae8fc;strokeColor=#6c8ebf;rounded=0;fontSize=18;" parent="M_DK1BdY7dgoIv5enWq1-65" vertex="1">
          <mxGeometry width="80" height="80" as="geometry" />
        </mxCell>
        <mxCell id="M_DK1BdY7dgoIv5enWq1-67" value="" style="ellipse;whiteSpace=wrap;html=1;aspect=fixed;hachureGap=4;rounded=0;fontSize=18;" parent="M_DK1BdY7dgoIv5enWq1-65" vertex="1">
          <mxGeometry x="15" y="15" width="50" height="50" as="geometry" />
        </mxCell>
        <mxCell id="M_DK1BdY7dgoIv5enWq1-69" value="" style="group" parent="1" vertex="1" connectable="0">
          <mxGeometry x="402" y="790" width="80" height="80" as="geometry" />
        </mxCell>
        <mxCell id="M_DK1BdY7dgoIv5enWq1-70" value="" style="ellipse;whiteSpace=wrap;html=1;aspect=fixed;hachureGap=4;fillColor=#dae8fc;strokeColor=#6c8ebf;rounded=0;fontSize=18;" parent="M_DK1BdY7dgoIv5enWq1-69" vertex="1">
          <mxGeometry width="80" height="80" as="geometry" />
        </mxCell>
        <mxCell id="M_DK1BdY7dgoIv5enWq1-71" value="" style="ellipse;whiteSpace=wrap;html=1;aspect=fixed;hachureGap=4;rounded=0;fontSize=18;" parent="M_DK1BdY7dgoIv5enWq1-69" vertex="1">
          <mxGeometry x="15" y="15" width="50" height="50" as="geometry" />
        </mxCell>
        <mxCell id="M_DK1BdY7dgoIv5enWq1-72" value="" style="group" parent="1" vertex="1" connectable="0">
          <mxGeometry x="251" y="793" width="80" height="80" as="geometry" />
        </mxCell>
        <mxCell id="M_DK1BdY7dgoIv5enWq1-73" value="" style="ellipse;whiteSpace=wrap;html=1;aspect=fixed;hachureGap=4;fillColor=#dae8fc;strokeColor=#6c8ebf;rounded=0;fontSize=18;" parent="M_DK1BdY7dgoIv5enWq1-72" vertex="1">
          <mxGeometry width="80" height="80" as="geometry" />
        </mxCell>
        <mxCell id="M_DK1BdY7dgoIv5enWq1-74" value="" style="ellipse;whiteSpace=wrap;html=1;aspect=fixed;hachureGap=4;rounded=0;fontSize=18;" parent="M_DK1BdY7dgoIv5enWq1-72" vertex="1">
          <mxGeometry x="15" y="15" width="50" height="50" as="geometry" />
        </mxCell>
        <mxCell id="M_DK1BdY7dgoIv5enWq1-75" value="" style="group" parent="1" vertex="1" connectable="0">
          <mxGeometry x="97" y="793" width="80" height="80" as="geometry" />
        </mxCell>
        <mxCell id="M_DK1BdY7dgoIv5enWq1-76" value="" style="ellipse;whiteSpace=wrap;html=1;aspect=fixed;hachureGap=4;fillColor=#dae8fc;strokeColor=#6c8ebf;rounded=0;fontSize=18;" parent="M_DK1BdY7dgoIv5enWq1-75" vertex="1">
          <mxGeometry width="80" height="80" as="geometry" />
        </mxCell>
        <mxCell id="M_DK1BdY7dgoIv5enWq1-77" value="" style="ellipse;whiteSpace=wrap;html=1;aspect=fixed;hachureGap=4;rounded=0;fontSize=18;" parent="M_DK1BdY7dgoIv5enWq1-75" vertex="1">
          <mxGeometry x="15" y="15" width="50" height="50" as="geometry" />
        </mxCell>
        <mxCell id="M_DK1BdY7dgoIv5enWq1-49" style="edgeStyle=orthogonalEdgeStyle;rounded=0;orthogonalLoop=1;jettySize=auto;html=1;exitX=0.5;exitY=1;exitDx=0;exitDy=0;entryX=0;entryY=1;entryDx=0;entryDy=0;curved=1;fontSize=18;" parent="1" edge="1">
          <mxGeometry relative="1" as="geometry">
            <Array as="points">
              <mxPoint x="141.5" y="901" />
              <mxPoint x="113.5" y="901" />
            </Array>
            <mxPoint x="141.5" y="871" as="sourcePoint" />
            <mxPoint x="113.21572875253833" y="859.2842712474619" as="targetPoint" />
          </mxGeometry>
        </mxCell>
        <mxCell id="M_DK1BdY7dgoIv5enWq1-33" style="edgeStyle=orthogonalEdgeStyle;rounded=0;orthogonalLoop=1;jettySize=auto;html=1;entryX=0;entryY=0.5;entryDx=0;entryDy=0;fontSize=18;" parent="1" edge="1">
          <mxGeometry relative="1" as="geometry">
            <mxPoint x="101.5" y="831" as="targetPoint" />
            <mxPoint x="51.5" y="831" as="sourcePoint" />
          </mxGeometry>
        </mxCell>
        <mxCell id="M_DK1BdY7dgoIv5enWq1-78" value="" style="ellipse;whiteSpace=wrap;html=1;aspect=fixed;hachureGap=4;fillColor=#dae8fc;strokeColor=#6c8ebf;rounded=0;fontSize=18;" parent="1" vertex="1">
          <mxGeometry x="704" y="791" width="80" height="80" as="geometry" />
        </mxCell>
        <mxCell id="M_DK1BdY7dgoIv5enWq1-79" style="edgeStyle=orthogonalEdgeStyle;rounded=0;orthogonalLoop=1;jettySize=auto;html=1;exitX=1;exitY=0.5;exitDx=0;exitDy=0;entryX=0;entryY=0.5;entryDx=0;entryDy=0;" parent="1" source="M_DK1BdY7dgoIv5enWq1-66" target="M_DK1BdY7dgoIv5enWq1-78" edge="1">
          <mxGeometry relative="1" as="geometry" />
        </mxCell>
        <mxCell id="M_DK1BdY7dgoIv5enWq1-80" style="edgeStyle=orthogonalEdgeStyle;rounded=0;orthogonalLoop=1;jettySize=auto;html=1;exitX=0.5;exitY=0;exitDx=0;exitDy=0;entryX=1;entryY=0;entryDx=0;entryDy=0;curved=1;" parent="1" source="M_DK1BdY7dgoIv5enWq1-78" target="M_DK1BdY7dgoIv5enWq1-78" edge="1">
          <mxGeometry relative="1" as="geometry">
            <Array as="points">
              <mxPoint x="744" y="753" />
              <mxPoint x="772" y="753" />
            </Array>
          </mxGeometry>
        </mxCell>
        <mxCell id="d25zeLT_CCKNkkWwXjsE-8" value="" style="edgeStyle=orthogonalEdgeStyle;rounded=0;orthogonalLoop=1;jettySize=auto;html=1;exitX=1;exitY=0.5;exitDx=0;exitDy=0;" parent="1" source="d25zeLT_CCKNkkWwXjsE-9" target="d25zeLT_CCKNkkWwXjsE-2" edge="1">
          <mxGeometry relative="1" as="geometry">
            <mxPoint x="1451" y="144" as="sourcePoint" />
          </mxGeometry>
        </mxCell>
        <mxCell id="d25zeLT_CCKNkkWwXjsE-2" value="" style="ellipse;whiteSpace=wrap;html=1;aspect=fixed;hachureGap=4;fillColor=#dae8fc;strokeColor=#6c8ebf;rounded=0;fontSize=18;" parent="1" vertex="1">
          <mxGeometry x="1531" y="104" width="80" height="80" as="geometry" />
        </mxCell>
        <mxCell id="d25zeLT_CCKNkkWwXjsE-6" style="edgeStyle=orthogonalEdgeStyle;rounded=0;orthogonalLoop=1;jettySize=auto;html=1;fontSize=18;" parent="1" edge="1">
          <mxGeometry relative="1" as="geometry">
            <mxPoint x="1612" y="141" as="targetPoint" />
            <mxPoint x="1679" y="141" as="sourcePoint" />
          </mxGeometry>
        </mxCell>
        <mxCell id="d25zeLT_CCKNkkWwXjsE-21" style="rounded=0;orthogonalLoop=1;jettySize=auto;html=1;exitX=0;exitY=0;exitDx=0;exitDy=0;entryX=1;entryY=1;entryDx=0;entryDy=0;" parent="1" source="d25zeLT_CCKNkkWwXjsE-17" target="d25zeLT_CCKNkkWwXjsE-9" edge="1">
          <mxGeometry relative="1" as="geometry" />
        </mxCell>
        <mxCell id="d25zeLT_CCKNkkWwXjsE-27" style="edgeStyle=orthogonalEdgeStyle;rounded=0;orthogonalLoop=1;jettySize=auto;html=1;exitX=0.5;exitY=0;exitDx=0;exitDy=0;" parent="1" source="d25zeLT_CCKNkkWwXjsE-14" target="d25zeLT_CCKNkkWwXjsE-9" edge="1">
          <mxGeometry relative="1" as="geometry" />
        </mxCell>
        <mxCell id="d25zeLT_CCKNkkWwXjsE-9" value="" style="ellipse;whiteSpace=wrap;html=1;aspect=fixed;hachureGap=4;fillColor=#dae8fc;strokeColor=#6c8ebf;rounded=0;fontSize=18;" parent="1" vertex="1">
          <mxGeometry x="1162" y="104" width="80" height="80" as="geometry" />
        </mxCell>
        <mxCell id="d25zeLT_CCKNkkWwXjsE-10" value="" style="ellipse;whiteSpace=wrap;html=1;aspect=fixed;hachureGap=4;rounded=0;fontSize=18;" parent="1" vertex="1">
          <mxGeometry x="1177" y="119" width="50" height="50" as="geometry" />
        </mxCell>
        <mxCell id="d25zeLT_CCKNkkWwXjsE-18" value="" style="rounded=0;orthogonalLoop=1;jettySize=auto;html=1;" parent="1" source="d25zeLT_CCKNkkWwXjsE-17" target="d25zeLT_CCKNkkWwXjsE-12" edge="1">
          <mxGeometry relative="1" as="geometry" />
        </mxCell>
        <mxCell id="d25zeLT_CCKNkkWwXjsE-23" style="edgeStyle=orthogonalEdgeStyle;rounded=0;orthogonalLoop=1;jettySize=auto;html=1;" parent="1" source="d25zeLT_CCKNkkWwXjsE-2" target="d25zeLT_CCKNkkWwXjsE-12" edge="1">
          <mxGeometry relative="1" as="geometry" />
        </mxCell>
        <mxCell id="d25zeLT_CCKNkkWwXjsE-43" style="edgeStyle=orthogonalEdgeStyle;rounded=0;orthogonalLoop=1;jettySize=auto;html=1;fontFamily=Helvetica;fontSize=18;fontColor=default;" parent="1" source="d25zeLT_CCKNkkWwXjsE-12" target="d25zeLT_CCKNkkWwXjsE-14" edge="1">
          <mxGeometry relative="1" as="geometry" />
        </mxCell>
        <mxCell id="d25zeLT_CCKNkkWwXjsE-12" value="" style="ellipse;whiteSpace=wrap;html=1;aspect=fixed;hachureGap=4;fillColor=#dae8fc;strokeColor=#6c8ebf;rounded=0;fontSize=18;" parent="1" vertex="1">
          <mxGeometry x="1531" y="381" width="80" height="80" as="geometry" />
        </mxCell>
        <mxCell id="d25zeLT_CCKNkkWwXjsE-13" style="edgeStyle=orthogonalEdgeStyle;rounded=0;orthogonalLoop=1;jettySize=auto;html=1;fontSize=18;" parent="1" edge="1">
          <mxGeometry relative="1" as="geometry">
            <mxPoint x="1612" y="418" as="targetPoint" />
            <mxPoint x="1679" y="418" as="sourcePoint" />
          </mxGeometry>
        </mxCell>
        <mxCell id="d25zeLT_CCKNkkWwXjsE-28" style="edgeStyle=orthogonalEdgeStyle;rounded=0;orthogonalLoop=1;jettySize=auto;html=1;exitX=0;exitY=0.5;exitDx=0;exitDy=0;" parent="1" source="d25zeLT_CCKNkkWwXjsE-9" target="d25zeLT_CCKNkkWwXjsE-14" edge="1">
          <mxGeometry relative="1" as="geometry">
            <Array as="points">
              <mxPoint x="1118" y="145" />
              <mxPoint x="1118" y="421" />
            </Array>
          </mxGeometry>
        </mxCell>
        <mxCell id="d25zeLT_CCKNkkWwXjsE-14" value="" style="ellipse;whiteSpace=wrap;html=1;aspect=fixed;hachureGap=4;fillColor=#dae8fc;strokeColor=#6c8ebf;rounded=0;fontSize=18;" parent="1" vertex="1">
          <mxGeometry x="1162" y="381" width="80" height="80" as="geometry" />
        </mxCell>
        <mxCell id="d25zeLT_CCKNkkWwXjsE-15" value="" style="ellipse;whiteSpace=wrap;html=1;aspect=fixed;hachureGap=4;rounded=0;fontSize=18;" parent="1" vertex="1">
          <mxGeometry x="1177" y="396" width="50" height="50" as="geometry" />
        </mxCell>
        <mxCell id="d25zeLT_CCKNkkWwXjsE-22" style="rounded=0;orthogonalLoop=1;jettySize=auto;html=1;exitX=1;exitY=0;exitDx=0;exitDy=0;entryX=0;entryY=1;entryDx=0;entryDy=0;" parent="1" source="d25zeLT_CCKNkkWwXjsE-14" target="d25zeLT_CCKNkkWwXjsE-17" edge="1">
          <mxGeometry relative="1" as="geometry" />
        </mxCell>
        <mxCell id="d25zeLT_CCKNkkWwXjsE-17" value="" style="ellipse;whiteSpace=wrap;html=1;aspect=fixed;hachureGap=4;fillColor=#dae8fc;strokeColor=#6c8ebf;rounded=0;fontSize=18;" parent="1" vertex="1">
          <mxGeometry x="1349" y="237" width="80" height="80" as="geometry" />
        </mxCell>
        <mxCell id="d25zeLT_CCKNkkWwXjsE-19" style="edgeStyle=orthogonalEdgeStyle;rounded=0;orthogonalLoop=1;jettySize=auto;html=1;exitX=1;exitY=0;exitDx=0;exitDy=0;entryX=0.5;entryY=0;entryDx=0;entryDy=0;curved=1;" parent="1" source="d25zeLT_CCKNkkWwXjsE-17" target="d25zeLT_CCKNkkWwXjsE-17" edge="1">
          <mxGeometry relative="1" as="geometry">
            <Array as="points">
              <mxPoint x="1391" y="209" />
              <mxPoint x="1363" y="209" />
            </Array>
          </mxGeometry>
        </mxCell>
        <mxCell id="d25zeLT_CCKNkkWwXjsE-24" style="edgeStyle=orthogonalEdgeStyle;rounded=0;orthogonalLoop=1;jettySize=auto;html=1;exitX=1;exitY=0;exitDx=0;exitDy=0;entryX=0.5;entryY=0;entryDx=0;entryDy=0;curved=1;" parent="1" source="d25zeLT_CCKNkkWwXjsE-2" target="d25zeLT_CCKNkkWwXjsE-2" edge="1">
          <mxGeometry relative="1" as="geometry">
            <Array as="points">
              <mxPoint x="1599" y="69" />
              <mxPoint x="1571" y="69" />
            </Array>
          </mxGeometry>
        </mxCell>
        <mxCell id="d25zeLT_CCKNkkWwXjsE-32" value="&lt;h2&gt;&lt;span style=&quot;font-weight: normal;&quot;&gt;b&lt;/span&gt;&lt;/h2&gt;" style="text;html=1;align=center;verticalAlign=middle;resizable=0;points=[];autosize=1;strokeColor=none;fillColor=none;fontFamily=Helvetica;fontSize=12;fontColor=default;" parent="1" vertex="1">
          <mxGeometry x="1483" y="306" width="28" height="63" as="geometry" />
        </mxCell>
        <mxCell id="d25zeLT_CCKNkkWwXjsE-33" value="a" style="text;html=1;align=center;verticalAlign=middle;resizable=0;points=[];autosize=1;strokeColor=none;fillColor=none;fontFamily=Helvetica;fontSize=18;fontColor=default;" parent="1" vertex="1">
          <mxGeometry x="1416" y="185" width="28" height="34" as="geometry" />
        </mxCell>
        <mxCell id="d25zeLT_CCKNkkWwXjsE-34" value="a" style="text;html=1;align=center;verticalAlign=middle;resizable=0;points=[];autosize=1;strokeColor=none;fillColor=none;fontFamily=Helvetica;fontSize=18;fontColor=default;" parent="1" vertex="1">
          <mxGeometry x="1578" y="340" width="28" height="34" as="geometry" />
        </mxCell>
        <mxCell id="d25zeLT_CCKNkkWwXjsE-35" value="a" style="text;html=1;align=center;verticalAlign=middle;resizable=0;points=[];autosize=1;strokeColor=none;fillColor=none;fontFamily=Helvetica;fontSize=18;fontColor=default;" parent="1" vertex="1">
          <mxGeometry x="1586" y="40" width="28" height="34" as="geometry" />
        </mxCell>
        <mxCell id="d25zeLT_CCKNkkWwXjsE-36" value="b" style="text;html=1;align=center;verticalAlign=middle;resizable=0;points=[];autosize=1;strokeColor=none;fillColor=none;fontFamily=Helvetica;fontSize=18;fontColor=default;" parent="1" vertex="1">
          <mxGeometry x="1378" y="107" width="28" height="34" as="geometry" />
        </mxCell>
        <mxCell id="d25zeLT_CCKNkkWwXjsE-37" value="a" style="text;html=1;align=center;verticalAlign=middle;resizable=0;points=[];autosize=1;strokeColor=none;fillColor=none;fontFamily=Helvetica;fontSize=18;fontColor=default;" parent="1" vertex="1">
          <mxGeometry x="1281" y="172" width="28" height="34" as="geometry" />
        </mxCell>
        <mxCell id="d25zeLT_CCKNkkWwXjsE-38" value="b" style="text;html=1;align=center;verticalAlign=middle;resizable=0;points=[];autosize=1;strokeColor=none;fillColor=none;fontFamily=Helvetica;fontSize=18;fontColor=default;" parent="1" vertex="1">
          <mxGeometry x="1284" y="312" width="28" height="34" as="geometry" />
        </mxCell>
        <mxCell id="d25zeLT_CCKNkkWwXjsE-39" value="b" style="text;html=1;align=center;verticalAlign=middle;resizable=0;points=[];autosize=1;strokeColor=none;fillColor=none;fontFamily=Helvetica;fontSize=18;fontColor=default;" parent="1" vertex="1">
          <mxGeometry x="1200" y="247" width="28" height="34" as="geometry" />
        </mxCell>
        <mxCell id="d25zeLT_CCKNkkWwXjsE-40" value="a" style="text;html=1;align=center;verticalAlign=middle;resizable=0;points=[];autosize=1;strokeColor=none;fillColor=none;fontFamily=Helvetica;fontSize=18;fontColor=default;" parent="1" vertex="1">
          <mxGeometry x="1083" y="255" width="28" height="34" as="geometry" />
        </mxCell>
        <mxCell id="d25zeLT_CCKNkkWwXjsE-41" value="b" style="text;html=1;align=center;verticalAlign=middle;resizable=0;points=[];autosize=1;strokeColor=none;fillColor=none;fontFamily=Helvetica;fontSize=18;fontColor=default;" parent="1" vertex="1">
          <mxGeometry x="1355" y="412" width="28" height="34" as="geometry" />
        </mxCell>
        <mxCell id="l0tlugJpZTA7hWs6nZKF-1" value="" style="edgeStyle=orthogonalEdgeStyle;rounded=0;orthogonalLoop=1;jettySize=auto;html=1;fontFamily=Helvetica;fontSize=18;fontColor=default;" parent="1" source="l0tlugJpZTA7hWs6nZKF-3" target="l0tlugJpZTA7hWs6nZKF-13" edge="1">
          <mxGeometry relative="1" as="geometry" />
        </mxCell>
        <mxCell id="l0tlugJpZTA7hWs6nZKF-2" style="edgeStyle=orthogonalEdgeStyle;rounded=0;orthogonalLoop=1;jettySize=auto;html=1;exitX=1;exitY=0;exitDx=0;exitDy=0;entryX=0;entryY=0.5;entryDx=0;entryDy=0;fontFamily=Helvetica;fontSize=18;fontColor=default;" parent="1" source="l0tlugJpZTA7hWs6nZKF-3" target="l0tlugJpZTA7hWs6nZKF-7" edge="1">
          <mxGeometry relative="1" as="geometry" />
        </mxCell>
        <mxCell id="l0tlugJpZTA7hWs6nZKF-3" value="&lt;div&gt;a0&lt;/div&gt;&lt;div&gt;b0&lt;/div&gt;" style="ellipse;whiteSpace=wrap;html=1;aspect=fixed;hachureGap=4;fillColor=#dae8fc;strokeColor=#6c8ebf;rounded=0;fontSize=18;" parent="1" vertex="1">
          <mxGeometry x="2203" y="-47" width="80" height="80" as="geometry" />
        </mxCell>
        <mxCell id="l0tlugJpZTA7hWs6nZKF-4" style="edgeStyle=orthogonalEdgeStyle;rounded=0;orthogonalLoop=1;jettySize=auto;html=1;fontSize=18;entryX=0;entryY=0.5;entryDx=0;entryDy=0;" parent="1" target="l0tlugJpZTA7hWs6nZKF-3" edge="1">
          <mxGeometry relative="1" as="geometry">
            <mxPoint x="2126" y="-7" as="sourcePoint" />
            <mxPoint x="2167" y="-376" as="targetPoint" />
          </mxGeometry>
        </mxCell>
        <mxCell id="l0tlugJpZTA7hWs6nZKF-5" value="" style="edgeStyle=orthogonalEdgeStyle;rounded=0;orthogonalLoop=1;jettySize=auto;html=1;fontFamily=Helvetica;fontSize=18;fontColor=default;" parent="1" source="l0tlugJpZTA7hWs6nZKF-7" target="l0tlugJpZTA7hWs6nZKF-10" edge="1">
          <mxGeometry relative="1" as="geometry" />
        </mxCell>
        <mxCell id="l0tlugJpZTA7hWs6nZKF-6" value="" style="edgeStyle=orthogonalEdgeStyle;rounded=0;orthogonalLoop=1;jettySize=auto;html=1;fontFamily=Helvetica;fontSize=18;fontColor=default;" parent="1" source="l0tlugJpZTA7hWs6nZKF-7" target="l0tlugJpZTA7hWs6nZKF-28" edge="1">
          <mxGeometry relative="1" as="geometry" />
        </mxCell>
        <mxCell id="l0tlugJpZTA7hWs6nZKF-7" value="a1&lt;div&gt;b0&lt;/div&gt;" style="ellipse;whiteSpace=wrap;html=1;aspect=fixed;hachureGap=4;fillColor=#dae8fc;strokeColor=#6c8ebf;rounded=0;fontSize=18;" parent="1" vertex="1">
          <mxGeometry x="2408" y="-290" width="80" height="80" as="geometry" />
        </mxCell>
        <mxCell id="l0tlugJpZTA7hWs6nZKF-8" style="edgeStyle=orthogonalEdgeStyle;rounded=0;orthogonalLoop=1;jettySize=auto;html=1;entryX=0.5;entryY=0;entryDx=0;entryDy=0;fontFamily=Helvetica;fontSize=18;fontColor=default;exitX=0.5;exitY=0;exitDx=0;exitDy=0;" parent="1" source="l0tlugJpZTA7hWs6nZKF-10" target="l0tlugJpZTA7hWs6nZKF-3" edge="1">
          <mxGeometry relative="1" as="geometry">
            <Array as="points">
              <mxPoint x="2645" y="-357" />
              <mxPoint x="2243" y="-357" />
            </Array>
          </mxGeometry>
        </mxCell>
        <mxCell id="l0tlugJpZTA7hWs6nZKF-9" style="edgeStyle=orthogonalEdgeStyle;rounded=0;orthogonalLoop=1;jettySize=auto;html=1;exitX=0.5;exitY=1;exitDx=0;exitDy=0;entryX=0.5;entryY=0;entryDx=0;entryDy=0;fontFamily=Helvetica;fontSize=18;fontColor=default;" parent="1" source="l0tlugJpZTA7hWs6nZKF-10" target="l0tlugJpZTA7hWs6nZKF-32" edge="1">
          <mxGeometry relative="1" as="geometry" />
        </mxCell>
        <mxCell id="l0tlugJpZTA7hWs6nZKF-102" value="" style="edgeStyle=orthogonalEdgeStyle;rounded=0;orthogonalLoop=1;jettySize=auto;html=1;" parent="1" source="l0tlugJpZTA7hWs6nZKF-10" target="l0tlugJpZTA7hWs6nZKF-101" edge="1">
          <mxGeometry relative="1" as="geometry" />
        </mxCell>
        <mxCell id="l0tlugJpZTA7hWs6nZKF-10" value="&lt;div&gt;a2&lt;/div&gt;&lt;div&gt;b0&lt;/div&gt;" style="ellipse;whiteSpace=wrap;html=1;aspect=fixed;hachureGap=4;fillColor=#dae8fc;strokeColor=#6c8ebf;rounded=0;fontSize=18;" parent="1" vertex="1">
          <mxGeometry x="2605" y="-290" width="80" height="80" as="geometry" />
        </mxCell>
        <mxCell id="l0tlugJpZTA7hWs6nZKF-12" style="edgeStyle=orthogonalEdgeStyle;rounded=0;orthogonalLoop=1;jettySize=auto;html=1;exitX=0.5;exitY=1;exitDx=0;exitDy=0;fontFamily=Helvetica;fontSize=18;fontColor=default;" parent="1" source="l0tlugJpZTA7hWs6nZKF-13" target="l0tlugJpZTA7hWs6nZKF-36" edge="1">
          <mxGeometry relative="1" as="geometry" />
        </mxCell>
        <mxCell id="l0tlugJpZTA7hWs6nZKF-122" style="edgeStyle=orthogonalEdgeStyle;rounded=0;orthogonalLoop=1;jettySize=auto;html=1;fontFamily=Helvetica;fontSize=18;fontColor=default;" parent="1" source="l0tlugJpZTA7hWs6nZKF-13" edge="1">
          <mxGeometry relative="1" as="geometry">
            <mxPoint x="2600.5078125" y="289" as="targetPoint" />
          </mxGeometry>
        </mxCell>
        <mxCell id="l0tlugJpZTA7hWs6nZKF-13" value="a0&lt;div&gt;b1&lt;/div&gt;" style="ellipse;whiteSpace=wrap;html=1;fontSize=18;fillColor=#dae8fc;strokeColor=#6c8ebf;hachureGap=4;rounded=0;" parent="1" vertex="1">
          <mxGeometry x="2202.9700000000003" y="249" width="80" height="80" as="geometry" />
        </mxCell>
        <mxCell id="l0tlugJpZTA7hWs6nZKF-14" value="a" style="text;html=1;align=center;verticalAlign=middle;resizable=0;points=[];autosize=1;strokeColor=none;fillColor=none;fontFamily=Helvetica;fontSize=18;fontColor=default;" parent="1" vertex="1">
          <mxGeometry x="2273" y="-74" width="28" height="34" as="geometry" />
        </mxCell>
        <mxCell id="l0tlugJpZTA7hWs6nZKF-15" value="a" style="text;html=1;align=center;verticalAlign=middle;resizable=0;points=[];autosize=1;strokeColor=none;fillColor=none;fontFamily=Helvetica;fontSize=18;fontColor=default;" parent="1" vertex="1">
          <mxGeometry x="2508" y="-285" width="28" height="34" as="geometry" />
        </mxCell>
        <mxCell id="l0tlugJpZTA7hWs6nZKF-16" value="a" style="text;html=1;align=center;verticalAlign=middle;resizable=0;points=[];autosize=1;strokeColor=none;fillColor=none;fontFamily=Helvetica;fontSize=18;fontColor=default;" parent="1" vertex="1">
          <mxGeometry x="2597" y="-345" width="28" height="34" as="geometry" />
        </mxCell>
        <mxCell id="l0tlugJpZTA7hWs6nZKF-20" style="edgeStyle=orthogonalEdgeStyle;rounded=0;orthogonalLoop=1;jettySize=auto;html=1;entryX=0.5;entryY=0;entryDx=0;entryDy=0;fontFamily=Helvetica;fontSize=18;fontColor=default;" parent="1" source="l0tlugJpZTA7hWs6nZKF-22" target="l0tlugJpZTA7hWs6nZKF-42" edge="1">
          <mxGeometry relative="1" as="geometry" />
        </mxCell>
        <mxCell id="l0tlugJpZTA7hWs6nZKF-21" style="edgeStyle=orthogonalEdgeStyle;rounded=0;orthogonalLoop=1;jettySize=auto;html=1;entryX=0;entryY=1;entryDx=0;entryDy=0;fontFamily=Helvetica;fontSize=18;fontColor=default;" parent="1" source="l0tlugJpZTA7hWs6nZKF-22" target="l0tlugJpZTA7hWs6nZKF-3" edge="1">
          <mxGeometry relative="1" as="geometry">
            <Array as="points">
              <mxPoint x="2644" y="211" />
              <mxPoint x="2182" y="211" />
              <mxPoint x="2182" y="21" />
            </Array>
          </mxGeometry>
        </mxCell>
        <mxCell id="l0tlugJpZTA7hWs6nZKF-22" value="a0&lt;div&gt;b2&lt;/div&gt;" style="ellipse;whiteSpace=wrap;html=1;fontSize=18;fillColor=#dae8fc;strokeColor=#6c8ebf;hachureGap=4;rounded=0;" parent="1" vertex="1">
          <mxGeometry x="2604" y="249" width="80" height="80" as="geometry" />
        </mxCell>
        <mxCell id="l0tlugJpZTA7hWs6nZKF-23" value="b" style="text;html=1;align=center;verticalAlign=middle;resizable=0;points=[];autosize=1;strokeColor=none;fillColor=none;fontFamily=Helvetica;fontSize=18;fontColor=default;" parent="1" vertex="1">
          <mxGeometry x="2248" y="50" width="28" height="34" as="geometry" />
        </mxCell>
        <mxCell id="l0tlugJpZTA7hWs6nZKF-24" value="b" style="text;html=1;align=center;verticalAlign=middle;resizable=0;points=[];autosize=1;strokeColor=none;fillColor=none;fontFamily=Helvetica;fontSize=18;fontColor=default;" parent="1" vertex="1">
          <mxGeometry x="2303.9700000000003" y="253" width="28" height="34" as="geometry" />
        </mxCell>
        <mxCell id="l0tlugJpZTA7hWs6nZKF-26" value="" style="edgeStyle=orthogonalEdgeStyle;rounded=0;orthogonalLoop=1;jettySize=auto;html=1;fontFamily=Helvetica;fontSize=18;fontColor=default;" parent="1" source="l0tlugJpZTA7hWs6nZKF-28" target="l0tlugJpZTA7hWs6nZKF-32" edge="1">
          <mxGeometry relative="1" as="geometry" />
        </mxCell>
        <mxCell id="l0tlugJpZTA7hWs6nZKF-27" style="edgeStyle=orthogonalEdgeStyle;rounded=0;orthogonalLoop=1;jettySize=auto;html=1;exitX=0.5;exitY=1;exitDx=0;exitDy=0;entryX=0.5;entryY=0;entryDx=0;entryDy=0;fontFamily=Helvetica;fontSize=18;fontColor=default;" parent="1" source="l0tlugJpZTA7hWs6nZKF-28" target="l0tlugJpZTA7hWs6nZKF-58" edge="1">
          <mxGeometry relative="1" as="geometry" />
        </mxCell>
        <mxCell id="l0tlugJpZTA7hWs6nZKF-28" value="a1&lt;div&gt;b1&lt;/div&gt;" style="ellipse;whiteSpace=wrap;html=1;fontSize=18;fillColor=#dae8fc;strokeColor=#6c8ebf;hachureGap=4;rounded=0;" parent="1" vertex="1">
          <mxGeometry x="2408" y="-152" width="80" height="80" as="geometry" />
        </mxCell>
        <mxCell id="l0tlugJpZTA7hWs6nZKF-29" value="b" style="text;html=1;align=center;verticalAlign=middle;resizable=0;points=[];autosize=1;strokeColor=none;fillColor=none;fontFamily=Helvetica;fontSize=18;fontColor=default;" parent="1" vertex="1">
          <mxGeometry x="2448" y="-201" width="28" height="34" as="geometry" />
        </mxCell>
        <mxCell id="l0tlugJpZTA7hWs6nZKF-30" style="edgeStyle=orthogonalEdgeStyle;rounded=0;orthogonalLoop=1;jettySize=auto;html=1;exitX=0.5;exitY=1;exitDx=0;exitDy=0;entryX=0.5;entryY=0;entryDx=0;entryDy=0;fontFamily=Helvetica;fontSize=18;fontColor=default;" parent="1" source="l0tlugJpZTA7hWs6nZKF-32" target="l0tlugJpZTA7hWs6nZKF-61" edge="1">
          <mxGeometry relative="1" as="geometry" />
        </mxCell>
        <mxCell id="l0tlugJpZTA7hWs6nZKF-103" style="edgeStyle=orthogonalEdgeStyle;rounded=0;orthogonalLoop=1;jettySize=auto;html=1;entryX=0;entryY=1;entryDx=0;entryDy=0;" parent="1" source="l0tlugJpZTA7hWs6nZKF-32" target="l0tlugJpZTA7hWs6nZKF-101" edge="1">
          <mxGeometry relative="1" as="geometry" />
        </mxCell>
        <mxCell id="l0tlugJpZTA7hWs6nZKF-32" value="a2&lt;div&gt;b1&lt;/div&gt;" style="ellipse;whiteSpace=wrap;html=1;fontSize=18;fillColor=#dae8fc;strokeColor=#6c8ebf;hachureGap=4;rounded=0;" parent="1" vertex="1">
          <mxGeometry x="2605" y="-152" width="80" height="80" as="geometry" />
        </mxCell>
        <mxCell id="l0tlugJpZTA7hWs6nZKF-33" value="a" style="text;html=1;align=center;verticalAlign=middle;resizable=0;points=[];autosize=1;strokeColor=none;fillColor=none;fontFamily=Helvetica;fontSize=18;fontColor=default;" parent="1" vertex="1">
          <mxGeometry x="2496" y="-152" width="28" height="34" as="geometry" />
        </mxCell>
        <mxCell id="l0tlugJpZTA7hWs6nZKF-35" style="edgeStyle=orthogonalEdgeStyle;rounded=0;orthogonalLoop=1;jettySize=auto;html=1;entryX=0.5;entryY=0;entryDx=0;entryDy=0;fontFamily=Helvetica;fontSize=18;fontColor=default;" parent="1" source="l0tlugJpZTA7hWs6nZKF-36" target="l0tlugJpZTA7hWs6nZKF-47" edge="1">
          <mxGeometry relative="1" as="geometry" />
        </mxCell>
        <mxCell id="l0tlugJpZTA7hWs6nZKF-123" style="edgeStyle=orthogonalEdgeStyle;rounded=0;orthogonalLoop=1;jettySize=auto;html=1;entryX=0;entryY=0.5;entryDx=0;entryDy=0;fontFamily=Helvetica;fontSize=18;fontColor=default;" parent="1" source="l0tlugJpZTA7hWs6nZKF-36" target="l0tlugJpZTA7hWs6nZKF-42" edge="1">
          <mxGeometry relative="1" as="geometry" />
        </mxCell>
        <mxCell id="l0tlugJpZTA7hWs6nZKF-36" value="a1&lt;div&gt;b1&lt;/div&gt;" style="ellipse;whiteSpace=wrap;html=1;fontSize=18;fillColor=#dae8fc;strokeColor=#6c8ebf;hachureGap=4;rounded=0;" parent="1" vertex="1">
          <mxGeometry x="2202.9700000000003" y="393" width="80" height="80" as="geometry" />
        </mxCell>
        <mxCell id="l0tlugJpZTA7hWs6nZKF-40" style="edgeStyle=orthogonalEdgeStyle;rounded=0;orthogonalLoop=1;jettySize=auto;html=1;exitX=0.5;exitY=1;exitDx=0;exitDy=0;entryX=0.5;entryY=0;entryDx=0;entryDy=0;fontFamily=Helvetica;fontSize=18;fontColor=default;" parent="1" source="l0tlugJpZTA7hWs6nZKF-42" target="l0tlugJpZTA7hWs6nZKF-53" edge="1">
          <mxGeometry relative="1" as="geometry" />
        </mxCell>
        <mxCell id="l0tlugJpZTA7hWs6nZKF-42" value="a1&lt;div&gt;b2&lt;/div&gt;" style="ellipse;whiteSpace=wrap;html=1;fontSize=18;fillColor=#dae8fc;strokeColor=#6c8ebf;hachureGap=4;rounded=0;" parent="1" vertex="1">
          <mxGeometry x="2604" y="393" width="80" height="80" as="geometry" />
        </mxCell>
        <mxCell id="l0tlugJpZTA7hWs6nZKF-43" value="b" style="text;html=1;align=center;verticalAlign=middle;resizable=0;points=[];autosize=1;strokeColor=none;fillColor=none;fontFamily=Helvetica;fontSize=18;fontColor=default;" parent="1" vertex="1">
          <mxGeometry x="2303.9700000000003" y="397" width="28" height="34" as="geometry" />
        </mxCell>
        <mxCell id="l0tlugJpZTA7hWs6nZKF-120" style="edgeStyle=orthogonalEdgeStyle;rounded=0;orthogonalLoop=1;jettySize=auto;html=1;entryX=1;entryY=1;entryDx=0;entryDy=0;fontFamily=Helvetica;fontSize=18;fontColor=default;" parent="1" source="l0tlugJpZTA7hWs6nZKF-47" target="l0tlugJpZTA7hWs6nZKF-101" edge="1">
          <mxGeometry relative="1" as="geometry">
            <Array as="points">
              <mxPoint x="2243" y="712" />
              <mxPoint x="2890" y="712" />
            </Array>
          </mxGeometry>
        </mxCell>
        <mxCell id="l0tlugJpZTA7hWs6nZKF-124" style="edgeStyle=orthogonalEdgeStyle;rounded=0;orthogonalLoop=1;jettySize=auto;html=1;entryX=0;entryY=0.5;entryDx=0;entryDy=0;fontFamily=Helvetica;fontSize=18;fontColor=default;" parent="1" source="l0tlugJpZTA7hWs6nZKF-47" target="l0tlugJpZTA7hWs6nZKF-53" edge="1">
          <mxGeometry relative="1" as="geometry" />
        </mxCell>
        <mxCell id="l0tlugJpZTA7hWs6nZKF-47" value="a2&lt;div&gt;b1&lt;/div&gt;" style="ellipse;whiteSpace=wrap;html=1;fontSize=18;fillColor=#dae8fc;strokeColor=#6c8ebf;hachureGap=4;rounded=0;" parent="1" vertex="1">
          <mxGeometry x="2203.0000000000005" y="550" width="80" height="80" as="geometry" />
        </mxCell>
        <mxCell id="l0tlugJpZTA7hWs6nZKF-51" style="edgeStyle=orthogonalEdgeStyle;rounded=0;orthogonalLoop=1;jettySize=auto;html=1;exitX=1;exitY=0.5;exitDx=0;exitDy=0;entryX=0.806;entryY=0.05;entryDx=0;entryDy=0;fontFamily=Helvetica;fontSize=18;fontColor=default;entryPerimeter=0;" parent="1" source="l0tlugJpZTA7hWs6nZKF-53" target="l0tlugJpZTA7hWs6nZKF-10" edge="1">
          <mxGeometry relative="1" as="geometry">
            <Array as="points">
              <mxPoint x="2684" y="589" />
              <mxPoint x="3003" y="589" />
              <mxPoint x="3003" y="-538" />
              <mxPoint x="2670" y="-538" />
            </Array>
          </mxGeometry>
        </mxCell>
        <mxCell id="l0tlugJpZTA7hWs6nZKF-53" value="a2&lt;div&gt;b2&lt;/div&gt;" style="ellipse;whiteSpace=wrap;html=1;fontSize=18;fillColor=#dae8fc;strokeColor=#6c8ebf;hachureGap=4;rounded=0;" parent="1" vertex="1">
          <mxGeometry x="2604" y="550" width="80" height="80" as="geometry" />
        </mxCell>
        <mxCell id="l0tlugJpZTA7hWs6nZKF-54" value="b" style="text;html=1;align=center;verticalAlign=middle;resizable=0;points=[];autosize=1;strokeColor=none;fillColor=none;fontFamily=Helvetica;fontSize=18;fontColor=default;" parent="1" vertex="1">
          <mxGeometry x="2302.9700000000003" y="553" width="28" height="34" as="geometry" />
        </mxCell>
        <mxCell id="l0tlugJpZTA7hWs6nZKF-56" value="" style="edgeStyle=orthogonalEdgeStyle;rounded=0;orthogonalLoop=1;jettySize=auto;html=1;fontFamily=Helvetica;fontSize=18;fontColor=default;" parent="1" source="l0tlugJpZTA7hWs6nZKF-58" target="l0tlugJpZTA7hWs6nZKF-61" edge="1">
          <mxGeometry relative="1" as="geometry" />
        </mxCell>
        <mxCell id="l0tlugJpZTA7hWs6nZKF-58" value="a1&lt;div&gt;b2&lt;/div&gt;" style="ellipse;whiteSpace=wrap;html=1;fontSize=18;fillColor=#dae8fc;strokeColor=#6c8ebf;hachureGap=4;rounded=0;" parent="1" vertex="1">
          <mxGeometry x="2408" y="-30" width="80" height="80" as="geometry" />
        </mxCell>
        <mxCell id="l0tlugJpZTA7hWs6nZKF-104" style="edgeStyle=orthogonalEdgeStyle;rounded=0;orthogonalLoop=1;jettySize=auto;html=1;" parent="1" source="l0tlugJpZTA7hWs6nZKF-61" target="l0tlugJpZTA7hWs6nZKF-101" edge="1">
          <mxGeometry relative="1" as="geometry" />
        </mxCell>
        <mxCell id="l0tlugJpZTA7hWs6nZKF-113" style="edgeStyle=orthogonalEdgeStyle;rounded=0;orthogonalLoop=1;jettySize=auto;html=1;entryX=0;entryY=1;entryDx=0;entryDy=0;fontFamily=Helvetica;fontSize=18;fontColor=default;" parent="1" edge="1">
          <mxGeometry relative="1" as="geometry">
            <mxPoint x="2606" y="10" as="sourcePoint" />
            <mxPoint x="2617.715728752538" y="-221.71572875253787" as="targetPoint" />
            <Array as="points">
              <mxPoint x="2641" y="10" />
              <mxPoint x="2641" y="75" />
              <mxPoint x="2569" y="75" />
              <mxPoint x="2569" y="-222" />
            </Array>
          </mxGeometry>
        </mxCell>
        <mxCell id="l0tlugJpZTA7hWs6nZKF-61" value="a2&lt;div&gt;b2&lt;/div&gt;" style="ellipse;whiteSpace=wrap;html=1;fontSize=18;fillColor=#dae8fc;strokeColor=#6c8ebf;hachureGap=4;rounded=0;" parent="1" vertex="1">
          <mxGeometry x="2605" y="-30" width="80" height="80" as="geometry" />
        </mxCell>
        <mxCell id="l0tlugJpZTA7hWs6nZKF-62" value="a" style="text;html=1;align=center;verticalAlign=middle;resizable=0;points=[];autosize=1;strokeColor=none;fillColor=none;fontFamily=Helvetica;fontSize=18;fontColor=default;" parent="1" vertex="1">
          <mxGeometry x="2496" y="-30" width="28" height="34" as="geometry" />
        </mxCell>
        <mxCell id="l0tlugJpZTA7hWs6nZKF-63" value="b" style="text;html=1;align=center;verticalAlign=middle;resizable=0;points=[];autosize=1;strokeColor=none;fillColor=none;fontFamily=Helvetica;fontSize=18;fontColor=default;" parent="1" vertex="1">
          <mxGeometry x="2457" y="-69" width="28" height="34" as="geometry" />
        </mxCell>
        <mxCell id="l0tlugJpZTA7hWs6nZKF-64" value="b" style="text;html=1;align=center;verticalAlign=middle;resizable=0;points=[];autosize=1;strokeColor=none;fillColor=none;fontFamily=Helvetica;fontSize=18;fontColor=default;" parent="1" vertex="1">
          <mxGeometry x="2651" y="-198" width="28" height="34" as="geometry" />
        </mxCell>
        <mxCell id="l0tlugJpZTA7hWs6nZKF-65" value="b" style="text;html=1;align=center;verticalAlign=middle;resizable=0;points=[];autosize=1;strokeColor=none;fillColor=none;fontFamily=Helvetica;fontSize=18;fontColor=default;" parent="1" vertex="1">
          <mxGeometry x="2654" y="-69" width="28" height="34" as="geometry" />
        </mxCell>
        <mxCell id="l0tlugJpZTA7hWs6nZKF-66" value="a" style="text;html=1;align=center;verticalAlign=middle;resizable=0;points=[];autosize=1;strokeColor=none;fillColor=none;fontFamily=Helvetica;fontSize=18;fontColor=default;" parent="1" vertex="1">
          <mxGeometry x="2708" y="-148" width="28" height="34" as="geometry" />
        </mxCell>
        <mxCell id="l0tlugJpZTA7hWs6nZKF-67" value="a" style="text;html=1;align=center;verticalAlign=middle;resizable=0;points=[];autosize=1;strokeColor=none;fillColor=none;fontFamily=Helvetica;fontSize=18;fontColor=default;" parent="1" vertex="1">
          <mxGeometry x="2758" y="-24" width="28" height="34" as="geometry" />
        </mxCell>
        <mxCell id="l0tlugJpZTA7hWs6nZKF-80" value="a" style="text;html=1;align=center;verticalAlign=middle;resizable=0;points=[];autosize=1;strokeColor=none;fillColor=none;fontFamily=Helvetica;fontSize=18;fontColor=default;" parent="1" vertex="1">
          <mxGeometry x="2242.9700000000003" y="340" width="28" height="34" as="geometry" />
        </mxCell>
        <mxCell id="l0tlugJpZTA7hWs6nZKF-81" value="a" style="text;html=1;align=center;verticalAlign=middle;resizable=0;points=[];autosize=1;strokeColor=none;fillColor=none;fontFamily=Helvetica;fontSize=18;fontColor=default;" parent="1" vertex="1">
          <mxGeometry x="2247.9700000000003" y="494" width="28" height="34" as="geometry" />
        </mxCell>
        <mxCell id="l0tlugJpZTA7hWs6nZKF-84" value="a" style="text;html=1;align=center;verticalAlign=middle;resizable=0;points=[];autosize=1;strokeColor=none;fillColor=none;fontFamily=Helvetica;fontSize=18;fontColor=default;" parent="1" vertex="1">
          <mxGeometry x="2646" y="340" width="28" height="34" as="geometry" />
        </mxCell>
        <mxCell id="l0tlugJpZTA7hWs6nZKF-85" value="a" style="text;html=1;align=center;verticalAlign=middle;resizable=0;points=[];autosize=1;strokeColor=none;fillColor=none;fontFamily=Helvetica;fontSize=18;fontColor=default;" parent="1" vertex="1">
          <mxGeometry x="2662" y="646" width="28" height="34" as="geometry" />
        </mxCell>
        <mxCell id="l0tlugJpZTA7hWs6nZKF-87" value="a" style="text;html=1;align=center;verticalAlign=middle;resizable=0;points=[];autosize=1;strokeColor=none;fillColor=none;fontFamily=Helvetica;fontSize=18;fontColor=default;" parent="1" vertex="1">
          <mxGeometry x="2252" y="663" width="28" height="34" as="geometry" />
        </mxCell>
        <mxCell id="l0tlugJpZTA7hWs6nZKF-88" value="b" style="text;html=1;align=center;verticalAlign=middle;resizable=0;points=[];autosize=1;strokeColor=none;fillColor=none;fontFamily=Helvetica;fontSize=18;fontColor=default;" parent="1" vertex="1">
          <mxGeometry x="2615" y="214" width="28" height="34" as="geometry" />
        </mxCell>
        <mxCell id="l0tlugJpZTA7hWs6nZKF-89" value="b" style="text;html=1;align=center;verticalAlign=middle;resizable=0;points=[];autosize=1;strokeColor=none;fillColor=none;fontFamily=Helvetica;fontSize=18;fontColor=default;" parent="1" vertex="1">
          <mxGeometry x="2681" y="395" width="28" height="34" as="geometry" />
        </mxCell>
        <mxCell id="l0tlugJpZTA7hWs6nZKF-90" value="b" style="text;html=1;align=center;verticalAlign=middle;resizable=0;points=[];autosize=1;strokeColor=none;fillColor=none;fontFamily=Helvetica;fontSize=18;fontColor=default;" parent="1" vertex="1">
          <mxGeometry x="2695" y="548" width="28" height="34" as="geometry" />
        </mxCell>
        <mxCell id="l0tlugJpZTA7hWs6nZKF-91" value="" style="ellipse;whiteSpace=wrap;html=1;aspect=fixed;align=center;verticalAlign=middle;fontFamily=Helvetica;fontSize=18;fontColor=default;fillColor=none;gradientColor=none;strokeColor=#000000;" parent="1" vertex="1">
          <mxGeometry x="1752" y="312" width="67" height="67" as="geometry" />
        </mxCell>
        <mxCell id="l0tlugJpZTA7hWs6nZKF-111" style="edgeStyle=orthogonalEdgeStyle;rounded=0;orthogonalLoop=1;jettySize=auto;html=1;entryX=0;entryY=1;entryDx=0;entryDy=0;fontFamily=Helvetica;fontSize=18;fontColor=default;" parent="1" target="l0tlugJpZTA7hWs6nZKF-7" edge="1">
          <mxGeometry relative="1" as="geometry">
            <mxPoint x="2415" y="9.5" as="sourcePoint" />
            <Array as="points">
              <mxPoint x="2383" y="10" />
              <mxPoint x="2383" y="-222" />
            </Array>
          </mxGeometry>
        </mxCell>
        <mxCell id="l0tlugJpZTA7hWs6nZKF-115" style="edgeStyle=orthogonalEdgeStyle;rounded=0;orthogonalLoop=1;jettySize=auto;html=1;entryX=0;entryY=0;entryDx=0;entryDy=0;fontFamily=Helvetica;fontSize=18;fontColor=default;" parent="1" target="l0tlugJpZTA7hWs6nZKF-3" edge="1">
          <mxGeometry relative="1" as="geometry">
            <mxPoint x="2677.5" y="289" as="sourcePoint" />
            <Array as="points">
              <mxPoint x="2950" y="289" />
              <mxPoint x="2950" y="-448" />
              <mxPoint x="2118" y="-448" />
              <mxPoint x="2118" y="-35" />
            </Array>
          </mxGeometry>
        </mxCell>
        <mxCell id="l0tlugJpZTA7hWs6nZKF-117" style="edgeStyle=orthogonalEdgeStyle;rounded=0;orthogonalLoop=1;jettySize=auto;html=1;entryX=0.5;entryY=0;entryDx=0;entryDy=0;fontFamily=Helvetica;fontSize=18;fontColor=default;fillColor=#d5e8d4;strokeColor=#82b366;" parent="1" target="l0tlugJpZTA7hWs6nZKF-7" edge="1">
          <mxGeometry relative="1" as="geometry">
            <mxPoint x="2676.5" y="433" as="sourcePoint" />
            <Array as="points">
              <mxPoint x="3043" y="433" />
              <mxPoint x="3043" y="-496" />
              <mxPoint x="2448" y="-496" />
            </Array>
          </mxGeometry>
        </mxCell>
        <mxCell id="l0tlugJpZTA7hWs6nZKF-101" value="&lt;div&gt;a3+&lt;/div&gt;" style="ellipse;whiteSpace=wrap;html=1;aspect=fixed;hachureGap=4;fillColor=#dae8fc;strokeColor=#6c8ebf;rounded=0;fontSize=18;" parent="1" vertex="1">
          <mxGeometry x="2822" y="-290" width="80" height="80" as="geometry" />
        </mxCell>
        <mxCell id="l0tlugJpZTA7hWs6nZKF-106" style="edgeStyle=orthogonalEdgeStyle;rounded=0;orthogonalLoop=1;jettySize=auto;html=1;exitX=1;exitY=0;exitDx=0;exitDy=0;entryX=0.5;entryY=0;entryDx=0;entryDy=0;curved=1;" parent="1" source="l0tlugJpZTA7hWs6nZKF-101" target="l0tlugJpZTA7hWs6nZKF-101" edge="1">
          <mxGeometry relative="1" as="geometry">
            <Array as="points">
              <mxPoint x="2890" y="-324" />
              <mxPoint x="2862" y="-324" />
            </Array>
          </mxGeometry>
        </mxCell>
        <mxCell id="l0tlugJpZTA7hWs6nZKF-109" value="a" style="text;html=1;align=center;verticalAlign=middle;resizable=0;points=[];autosize=1;strokeColor=none;fillColor=none;fontFamily=Helvetica;fontSize=18;fontColor=default;" parent="1" vertex="1">
          <mxGeometry x="2650" y="490" width="28" height="34" as="geometry" />
        </mxCell>
        <mxCell id="l0tlugJpZTA7hWs6nZKF-110" value="b,a" style="text;html=1;align=center;verticalAlign=middle;resizable=0;points=[];autosize=1;strokeColor=none;fillColor=none;fontFamily=Helvetica;fontSize=18;fontColor=default;" parent="1" vertex="1">
          <mxGeometry x="2864" y="-355" width="43" height="34" as="geometry" />
        </mxCell>
        <mxCell id="l0tlugJpZTA7hWs6nZKF-112" value="b" style="text;html=1;align=center;verticalAlign=middle;resizable=0;points=[];autosize=1;strokeColor=none;fillColor=none;fontFamily=Helvetica;fontSize=18;fontColor=default;" parent="1" vertex="1">
          <mxGeometry x="2359" y="-8" width="28" height="34" as="geometry" />
        </mxCell>
        <mxCell id="l0tlugJpZTA7hWs6nZKF-114" value="b" style="text;html=1;align=center;verticalAlign=middle;resizable=0;points=[];autosize=1;strokeColor=none;fillColor=none;fontFamily=Helvetica;fontSize=18;fontColor=default;" parent="1" vertex="1">
          <mxGeometry x="2625" y="73" width="28" height="34" as="geometry" />
        </mxCell>
        <mxCell id="l0tlugJpZTA7hWs6nZKF-116" value="b" style="text;html=1;align=center;verticalAlign=middle;resizable=0;points=[];autosize=1;strokeColor=none;fillColor=none;fontFamily=Helvetica;fontSize=18;fontColor=default;" parent="1" vertex="1">
          <mxGeometry x="2695" y="255" width="28" height="34" as="geometry" />
        </mxCell>
        <mxCell id="l0tlugJpZTA7hWs6nZKF-118" style="edgeStyle=orthogonalEdgeStyle;rounded=0;orthogonalLoop=1;jettySize=auto;html=1;fontFamily=Helvetica;fontSize=18;fontColor=default;fillColor=#dae8fc;strokeColor=#6c8ebf;entryX=1;entryY=0.613;entryDx=0;entryDy=0;entryPerimeter=0;" parent="1" edge="1">
          <mxGeometry relative="1" as="geometry">
            <mxPoint x="2644" y="628" as="sourcePoint" />
            <mxPoint x="2902" y="-242.96000000000004" as="targetPoint" />
            <Array as="points">
              <mxPoint x="2644" y="687" />
              <mxPoint x="3070" y="687" />
              <mxPoint x="3070" y="-243" />
            </Array>
          </mxGeometry>
        </mxCell>
        <mxCell id="l0tlugJpZTA7hWs6nZKF-119" value="a" style="text;html=1;align=center;verticalAlign=middle;resizable=0;points=[];autosize=1;strokeColor=none;fillColor=none;fontFamily=Helvetica;fontSize=18;fontColor=default;" parent="1" vertex="1">
          <mxGeometry x="2692" y="-276" width="28" height="34" as="geometry" />
        </mxCell>
        <mxCell id="l0tlugJpZTA7hWs6nZKF-125" value="" style="ellipse;whiteSpace=wrap;html=1;aspect=fixed;align=center;verticalAlign=middle;fontFamily=Helvetica;fontSize=18;fontColor=default;fillColor=none;gradientColor=none;strokeColor=#000000;" parent="1" vertex="1">
          <mxGeometry x="2414.5" y="-283.5" width="67" height="67" as="geometry" />
        </mxCell>
        <mxCell id="l0tlugJpZTA7hWs6nZKF-126" value="" style="ellipse;whiteSpace=wrap;html=1;aspect=fixed;align=center;verticalAlign=middle;fontFamily=Helvetica;fontSize=18;fontColor=default;fillColor=none;gradientColor=none;strokeColor=#000000;" parent="1" vertex="1">
          <mxGeometry x="2610.5" y="-283.5" width="67" height="67" as="geometry" />
        </mxCell>
        <mxCell id="l0tlugJpZTA7hWs6nZKF-127" value="" style="ellipse;whiteSpace=wrap;html=1;aspect=fixed;align=center;verticalAlign=middle;fontFamily=Helvetica;fontSize=18;fontColor=default;fillColor=none;gradientColor=none;strokeColor=#000000;" parent="1" vertex="1">
          <mxGeometry x="2828.5" y="-283" width="67" height="67" as="geometry" />
        </mxCell>
        <mxCell id="l0tlugJpZTA7hWs6nZKF-128" value="" style="ellipse;whiteSpace=wrap;html=1;aspect=fixed;align=center;verticalAlign=middle;fontFamily=Helvetica;fontSize=18;fontColor=default;fillColor=none;gradientColor=none;strokeColor=#000000;" parent="1" vertex="1">
          <mxGeometry x="2612" y="-145.5" width="67" height="67" as="geometry" />
        </mxCell>
        <mxCell id="l0tlugJpZTA7hWs6nZKF-129" value="" style="ellipse;whiteSpace=wrap;html=1;aspect=fixed;align=center;verticalAlign=middle;fontFamily=Helvetica;fontSize=18;fontColor=default;fillColor=none;gradientColor=none;strokeColor=#000000;" parent="1" vertex="1">
          <mxGeometry x="2210" y="557" width="67" height="67" as="geometry" />
        </mxCell>
        <mxCell id="l0tlugJpZTA7hWs6nZKF-134" value="" style="edgeStyle=orthogonalEdgeStyle;rounded=0;orthogonalLoop=1;jettySize=auto;html=1;fontFamily=Helvetica;fontSize=18;fontColor=default;" parent="1" source="l0tlugJpZTA7hWs6nZKF-130" target="l0tlugJpZTA7hWs6nZKF-133" edge="1">
          <mxGeometry relative="1" as="geometry" />
        </mxCell>
        <mxCell id="l0tlugJpZTA7hWs6nZKF-130" value="-" style="ellipse;whiteSpace=wrap;html=1;aspect=fixed;hachureGap=4;fillColor=#dae8fc;strokeColor=#6c8ebf;rounded=0;fontSize=18;" parent="1" vertex="1">
          <mxGeometry x="1091" y="585" width="80" height="80" as="geometry" />
        </mxCell>
        <mxCell id="l0tlugJpZTA7hWs6nZKF-131" style="edgeStyle=orthogonalEdgeStyle;rounded=0;orthogonalLoop=1;jettySize=auto;html=1;fontSize=18;entryX=0;entryY=0.5;entryDx=0;entryDy=0;" parent="1" target="l0tlugJpZTA7hWs6nZKF-130" edge="1">
          <mxGeometry relative="1" as="geometry">
            <mxPoint x="1014" y="625" as="sourcePoint" />
            <mxPoint x="1055" y="256" as="targetPoint" />
          </mxGeometry>
        </mxCell>
        <mxCell id="l0tlugJpZTA7hWs6nZKF-137" value="" style="edgeStyle=orthogonalEdgeStyle;rounded=0;orthogonalLoop=1;jettySize=auto;html=1;fontFamily=Helvetica;fontSize=18;fontColor=default;" parent="1" source="l0tlugJpZTA7hWs6nZKF-133" target="l0tlugJpZTA7hWs6nZKF-136" edge="1">
          <mxGeometry relative="1" as="geometry" />
        </mxCell>
        <mxCell id="l0tlugJpZTA7hWs6nZKF-133" value="a" style="ellipse;whiteSpace=wrap;html=1;aspect=fixed;hachureGap=4;fillColor=#dae8fc;strokeColor=#6c8ebf;rounded=0;fontSize=18;" parent="1" vertex="1">
          <mxGeometry x="1251" y="585" width="80" height="80" as="geometry" />
        </mxCell>
        <mxCell id="l0tlugJpZTA7hWs6nZKF-135" value="a" style="text;html=1;align=center;verticalAlign=middle;resizable=0;points=[];autosize=1;strokeColor=none;fillColor=none;fontFamily=Helvetica;fontSize=18;fontColor=default;" parent="1" vertex="1">
          <mxGeometry x="1186" y="583" width="28" height="34" as="geometry" />
        </mxCell>
        <mxCell id="l0tlugJpZTA7hWs6nZKF-140" value="" style="edgeStyle=orthogonalEdgeStyle;rounded=0;orthogonalLoop=1;jettySize=auto;html=1;fontFamily=Helvetica;fontSize=18;fontColor=default;" parent="1" source="l0tlugJpZTA7hWs6nZKF-136" target="l0tlugJpZTA7hWs6nZKF-139" edge="1">
          <mxGeometry relative="1" as="geometry" />
        </mxCell>
        <mxCell id="l0tlugJpZTA7hWs6nZKF-136" value="ab" style="ellipse;whiteSpace=wrap;html=1;aspect=fixed;hachureGap=4;fillColor=#dae8fc;strokeColor=#6c8ebf;rounded=0;fontSize=18;" parent="1" vertex="1">
          <mxGeometry x="1411" y="585" width="80" height="80" as="geometry" />
        </mxCell>
        <mxCell id="l0tlugJpZTA7hWs6nZKF-138" value="b" style="text;html=1;align=center;verticalAlign=middle;resizable=0;points=[];autosize=1;strokeColor=none;fillColor=none;fontFamily=Helvetica;fontSize=18;fontColor=default;" parent="1" vertex="1">
          <mxGeometry x="1352" y="581" width="28" height="34" as="geometry" />
        </mxCell>
        <mxCell id="l0tlugJpZTA7hWs6nZKF-148" style="edgeStyle=orthogonalEdgeStyle;rounded=0;orthogonalLoop=1;jettySize=auto;html=1;entryX=0.5;entryY=1;entryDx=0;entryDy=0;fontFamily=Helvetica;fontSize=18;fontColor=default;" parent="1" source="l0tlugJpZTA7hWs6nZKF-139" target="l0tlugJpZTA7hWs6nZKF-147" edge="1">
          <mxGeometry relative="1" as="geometry">
            <Array as="points">
              <mxPoint x="1611" y="723" />
              <mxPoint x="1291" y="723" />
            </Array>
          </mxGeometry>
        </mxCell>
        <mxCell id="l0tlugJpZTA7hWs6nZKF-139" value="ba" style="ellipse;whiteSpace=wrap;html=1;aspect=fixed;hachureGap=4;fillColor=#dae8fc;strokeColor=#6c8ebf;rounded=0;fontSize=18;" parent="1" vertex="1">
          <mxGeometry x="1571" y="585" width="80" height="80" as="geometry" />
        </mxCell>
        <mxCell id="l0tlugJpZTA7hWs6nZKF-141" style="edgeStyle=orthogonalEdgeStyle;rounded=0;orthogonalLoop=1;jettySize=auto;html=1;exitX=1;exitY=0;exitDx=0;exitDy=0;entryX=0.5;entryY=0;entryDx=0;entryDy=0;fontFamily=Helvetica;fontSize=18;fontColor=default;curved=1;" parent="1" source="l0tlugJpZTA7hWs6nZKF-136" target="l0tlugJpZTA7hWs6nZKF-136" edge="1">
          <mxGeometry relative="1" as="geometry">
            <Array as="points">
              <mxPoint x="1479" y="560" />
              <mxPoint x="1451" y="560" />
            </Array>
          </mxGeometry>
        </mxCell>
        <mxCell id="l0tlugJpZTA7hWs6nZKF-142" value="b" style="text;html=1;align=center;verticalAlign=middle;resizable=0;points=[];autosize=1;strokeColor=none;fillColor=none;fontFamily=Helvetica;fontSize=18;fontColor=default;" parent="1" vertex="1">
          <mxGeometry x="1450" y="522" width="28" height="34" as="geometry" />
        </mxCell>
        <mxCell id="l0tlugJpZTA7hWs6nZKF-143" value="a" style="text;html=1;align=center;verticalAlign=middle;resizable=0;points=[];autosize=1;strokeColor=none;fillColor=none;fontFamily=Helvetica;fontSize=18;fontColor=default;" parent="1" vertex="1">
          <mxGeometry x="1517" y="583" width="28" height="34" as="geometry" />
        </mxCell>
        <mxCell id="l0tlugJpZTA7hWs6nZKF-144" style="edgeStyle=orthogonalEdgeStyle;rounded=0;orthogonalLoop=1;jettySize=auto;html=1;exitX=1;exitY=0;exitDx=0;exitDy=0;entryX=0.5;entryY=0;entryDx=0;entryDy=0;fontFamily=Helvetica;fontSize=18;fontColor=default;curved=1;" parent="1" source="l0tlugJpZTA7hWs6nZKF-133" target="l0tlugJpZTA7hWs6nZKF-133" edge="1">
          <mxGeometry relative="1" as="geometry">
            <Array as="points">
              <mxPoint x="1319" y="554" />
              <mxPoint x="1291" y="554" />
            </Array>
          </mxGeometry>
        </mxCell>
        <mxCell id="l0tlugJpZTA7hWs6nZKF-145" value="a" style="text;html=1;align=center;verticalAlign=middle;resizable=0;points=[];autosize=1;strokeColor=none;fillColor=none;fontFamily=Helvetica;fontSize=18;fontColor=default;" parent="1" vertex="1">
          <mxGeometry x="1287" y="518" width="28" height="34" as="geometry" />
        </mxCell>
        <mxCell id="l0tlugJpZTA7hWs6nZKF-151" style="edgeStyle=orthogonalEdgeStyle;rounded=0;orthogonalLoop=1;jettySize=auto;html=1;entryX=0;entryY=0;entryDx=0;entryDy=0;fontFamily=Helvetica;fontSize=18;fontColor=default;" parent="1" target="l0tlugJpZTA7hWs6nZKF-136" edge="1">
          <mxGeometry relative="1" as="geometry">
            <mxPoint x="1611" y="581" as="sourcePoint" />
            <Array as="points">
              <mxPoint x="1611" y="584" />
              <mxPoint x="1607" y="584" />
              <mxPoint x="1607" y="488" />
              <mxPoint x="1423" y="488" />
            </Array>
          </mxGeometry>
        </mxCell>
        <mxCell id="l0tlugJpZTA7hWs6nZKF-146" value="" style="ellipse;whiteSpace=wrap;html=1;aspect=fixed;align=center;verticalAlign=middle;fontFamily=Helvetica;fontSize=18;fontColor=default;fillColor=none;gradientColor=none;strokeColor=#000000;" parent="1" vertex="1">
          <mxGeometry x="1577.5" y="591.5" width="67" height="67" as="geometry" />
        </mxCell>
        <mxCell id="l0tlugJpZTA7hWs6nZKF-147" value="" style="ellipse;whiteSpace=wrap;html=1;aspect=fixed;align=center;verticalAlign=middle;fontFamily=Helvetica;fontSize=18;fontColor=default;fillColor=none;gradientColor=none;strokeColor=#000000;" parent="1" vertex="1">
          <mxGeometry x="1257.5" y="591.5" width="67" height="67" as="geometry" />
        </mxCell>
        <mxCell id="l0tlugJpZTA7hWs6nZKF-149" value="a" style="text;html=1;align=center;verticalAlign=middle;resizable=0;points=[];autosize=1;strokeColor=none;fillColor=none;fontFamily=Helvetica;fontSize=18;fontColor=default;" parent="1" vertex="1">
          <mxGeometry x="1616.5" y="679" width="28" height="34" as="geometry" />
        </mxCell>
        <mxCell id="l0tlugJpZTA7hWs6nZKF-152" value="b" style="text;html=1;align=center;verticalAlign=middle;resizable=0;points=[];autosize=1;strokeColor=none;fillColor=none;fontFamily=Helvetica;fontSize=18;fontColor=default;" parent="1" vertex="1">
          <mxGeometry x="1613" y="538" width="28" height="34" as="geometry" />
        </mxCell>
        <mxCell id="l0tlugJpZTA7hWs6nZKF-153" value="" style="edgeStyle=orthogonalEdgeStyle;rounded=0;orthogonalLoop=1;jettySize=auto;html=1;fontFamily=Helvetica;fontSize=18;fontColor=default;" parent="1" source="l0tlugJpZTA7hWs6nZKF-154" target="l0tlugJpZTA7hWs6nZKF-157" edge="1">
          <mxGeometry relative="1" as="geometry" />
        </mxCell>
        <mxCell id="l0tlugJpZTA7hWs6nZKF-180" value="" style="edgeStyle=orthogonalEdgeStyle;rounded=0;orthogonalLoop=1;jettySize=auto;html=1;fontFamily=Helvetica;fontSize=18;fontColor=default;" parent="1" source="l0tlugJpZTA7hWs6nZKF-154" target="l0tlugJpZTA7hWs6nZKF-179" edge="1">
          <mxGeometry relative="1" as="geometry" />
        </mxCell>
        <mxCell id="l0tlugJpZTA7hWs6nZKF-154" value="0" style="ellipse;whiteSpace=wrap;html=1;aspect=fixed;hachureGap=4;fillColor=#dae8fc;strokeColor=#6c8ebf;rounded=0;fontSize=18;" parent="1" vertex="1">
          <mxGeometry x="1134" y="1034" width="80" height="80" as="geometry" />
        </mxCell>
        <mxCell id="l0tlugJpZTA7hWs6nZKF-155" style="edgeStyle=orthogonalEdgeStyle;rounded=0;orthogonalLoop=1;jettySize=auto;html=1;fontSize=18;entryX=0;entryY=0.5;entryDx=0;entryDy=0;" parent="1" target="l0tlugJpZTA7hWs6nZKF-154" edge="1">
          <mxGeometry relative="1" as="geometry">
            <mxPoint x="1057" y="1074" as="sourcePoint" />
            <mxPoint x="1098" y="705" as="targetPoint" />
          </mxGeometry>
        </mxCell>
        <mxCell id="l0tlugJpZTA7hWs6nZKF-156" value="" style="edgeStyle=orthogonalEdgeStyle;rounded=0;orthogonalLoop=1;jettySize=auto;html=1;fontFamily=Helvetica;fontSize=18;fontColor=default;" parent="1" source="l0tlugJpZTA7hWs6nZKF-157" target="l0tlugJpZTA7hWs6nZKF-160" edge="1">
          <mxGeometry relative="1" as="geometry" />
        </mxCell>
        <mxCell id="l0tlugJpZTA7hWs6nZKF-175" value="" style="edgeStyle=orthogonalEdgeStyle;rounded=0;orthogonalLoop=1;jettySize=auto;html=1;fontFamily=Helvetica;fontSize=18;fontColor=default;" parent="1" source="l0tlugJpZTA7hWs6nZKF-157" target="l0tlugJpZTA7hWs6nZKF-174" edge="1">
          <mxGeometry relative="1" as="geometry" />
        </mxCell>
        <mxCell id="l0tlugJpZTA7hWs6nZKF-157" value="1" style="ellipse;whiteSpace=wrap;html=1;aspect=fixed;hachureGap=4;fillColor=#dae8fc;strokeColor=#6c8ebf;rounded=0;fontSize=18;" parent="1" vertex="1">
          <mxGeometry x="1294" y="1034" width="80" height="80" as="geometry" />
        </mxCell>
        <mxCell id="l0tlugJpZTA7hWs6nZKF-188" style="edgeStyle=orthogonalEdgeStyle;rounded=0;orthogonalLoop=1;jettySize=auto;html=1;entryX=0.5;entryY=0;entryDx=0;entryDy=0;fontFamily=Helvetica;fontSize=18;fontColor=default;" parent="1" source="l0tlugJpZTA7hWs6nZKF-160" target="l0tlugJpZTA7hWs6nZKF-154" edge="1">
          <mxGeometry relative="1" as="geometry">
            <Array as="points">
              <mxPoint x="1489" y="909" />
              <mxPoint x="1174" y="909" />
            </Array>
          </mxGeometry>
        </mxCell>
        <mxCell id="l0tlugJpZTA7hWs6nZKF-160" value="2" style="ellipse;whiteSpace=wrap;html=1;aspect=fixed;hachureGap=4;fillColor=#dae8fc;strokeColor=#6c8ebf;rounded=0;fontSize=18;" parent="1" vertex="1">
          <mxGeometry x="1454" y="1034" width="80" height="80" as="geometry" />
        </mxCell>
        <mxCell id="l0tlugJpZTA7hWs6nZKF-190" style="edgeStyle=orthogonalEdgeStyle;rounded=0;orthogonalLoop=1;jettySize=auto;html=1;entryX=0;entryY=0;entryDx=0;entryDy=0;fontFamily=Helvetica;fontSize=18;fontColor=default;" parent="1" source="l0tlugJpZTA7hWs6nZKF-174" target="l0tlugJpZTA7hWs6nZKF-154" edge="1">
          <mxGeometry relative="1" as="geometry">
            <Array as="points">
              <mxPoint x="1334" y="1331" />
              <mxPoint x="981" y="1331" />
              <mxPoint x="981" y="1046" />
            </Array>
          </mxGeometry>
        </mxCell>
        <mxCell id="l0tlugJpZTA7hWs6nZKF-174" value="2F" style="ellipse;whiteSpace=wrap;html=1;fontSize=18;fillColor=#dae8fc;strokeColor=#6c8ebf;hachureGap=4;rounded=0;" parent="1" vertex="1">
          <mxGeometry x="1294" y="1209" width="80" height="80" as="geometry" />
        </mxCell>
        <mxCell id="l0tlugJpZTA7hWs6nZKF-176" value="" style="ellipse;whiteSpace=wrap;html=1;aspect=fixed;align=center;verticalAlign=middle;fontFamily=Helvetica;fontSize=18;fontColor=default;fillColor=none;gradientColor=none;strokeColor=#000000;" parent="1" vertex="1">
          <mxGeometry x="1301.5" y="1215" width="67" height="67" as="geometry" />
        </mxCell>
        <mxCell id="l0tlugJpZTA7hWs6nZKF-177" value="a" style="text;html=1;align=center;verticalAlign=middle;resizable=0;points=[];autosize=1;strokeColor=none;fillColor=none;fontFamily=Helvetica;fontSize=18;fontColor=default;" parent="1" vertex="1">
          <mxGeometry x="1335" y="1165" width="28" height="34" as="geometry" />
        </mxCell>
        <mxCell id="l0tlugJpZTA7hWs6nZKF-178" value="b" style="text;html=1;align=center;verticalAlign=middle;resizable=0;points=[];autosize=1;strokeColor=none;fillColor=none;fontFamily=Helvetica;fontSize=18;fontColor=default;" parent="1" vertex="1">
          <mxGeometry x="1230" y="1034" width="28" height="34" as="geometry" />
        </mxCell>
        <mxCell id="l0tlugJpZTA7hWs6nZKF-179" value="1F" style="ellipse;whiteSpace=wrap;html=1;aspect=fixed;hachureGap=4;fillColor=#dae8fc;strokeColor=#6c8ebf;rounded=0;fontSize=18;" parent="1" vertex="1">
          <mxGeometry x="1134" y="1209" width="80" height="80" as="geometry" />
        </mxCell>
        <mxCell id="l0tlugJpZTA7hWs6nZKF-183" style="edgeStyle=orthogonalEdgeStyle;rounded=0;orthogonalLoop=1;jettySize=auto;html=1;entryX=0;entryY=0.5;entryDx=0;entryDy=0;fontFamily=Helvetica;fontSize=18;fontColor=default;" parent="1" source="l0tlugJpZTA7hWs6nZKF-181" target="l0tlugJpZTA7hWs6nZKF-176" edge="1">
          <mxGeometry relative="1" as="geometry" />
        </mxCell>
        <mxCell id="l0tlugJpZTA7hWs6nZKF-185" style="edgeStyle=orthogonalEdgeStyle;rounded=0;orthogonalLoop=1;jettySize=auto;html=1;entryX=0.5;entryY=0;entryDx=0;entryDy=0;fontFamily=Helvetica;fontSize=18;fontColor=default;" parent="1" source="l0tlugJpZTA7hWs6nZKF-181" target="l0tlugJpZTA7hWs6nZKF-157" edge="1">
          <mxGeometry relative="1" as="geometry">
            <Array as="points">
              <mxPoint x="1012" y="1249" />
              <mxPoint x="1012" y="951" />
              <mxPoint x="1334" y="951" />
            </Array>
          </mxGeometry>
        </mxCell>
        <mxCell id="l0tlugJpZTA7hWs6nZKF-181" value="" style="ellipse;whiteSpace=wrap;html=1;aspect=fixed;align=center;verticalAlign=middle;fontFamily=Helvetica;fontSize=18;fontColor=default;fillColor=none;gradientColor=none;strokeColor=#000000;" parent="1" vertex="1">
          <mxGeometry x="1142" y="1215" width="67" height="67" as="geometry" />
        </mxCell>
        <mxCell id="l0tlugJpZTA7hWs6nZKF-182" value="a" style="text;html=1;align=center;verticalAlign=middle;resizable=0;points=[];autosize=1;strokeColor=none;fillColor=none;fontFamily=Helvetica;fontSize=18;fontColor=default;" parent="1" vertex="1">
          <mxGeometry x="1143" y="1129" width="28" height="34" as="geometry" />
        </mxCell>
        <mxCell id="l0tlugJpZTA7hWs6nZKF-184" value="a" style="text;html=1;align=center;verticalAlign=middle;resizable=0;points=[];autosize=1;strokeColor=none;fillColor=none;fontFamily=Helvetica;fontSize=18;fontColor=default;" parent="1" vertex="1">
          <mxGeometry x="1230" y="1207" width="28" height="34" as="geometry" />
        </mxCell>
        <mxCell id="l0tlugJpZTA7hWs6nZKF-186" value="b" style="text;html=1;align=center;verticalAlign=middle;resizable=0;points=[];autosize=1;strokeColor=none;fillColor=none;fontFamily=Helvetica;fontSize=18;fontColor=default;" parent="1" vertex="1">
          <mxGeometry x="1093" y="1210" width="28" height="34" as="geometry" />
        </mxCell>
        <mxCell id="l0tlugJpZTA7hWs6nZKF-187" value="b" style="text;html=1;align=center;verticalAlign=middle;resizable=0;points=[];autosize=1;strokeColor=none;fillColor=none;fontFamily=Helvetica;fontSize=18;fontColor=default;" parent="1" vertex="1">
          <mxGeometry x="1389" y="1036" width="28" height="34" as="geometry" />
        </mxCell>
        <mxCell id="l0tlugJpZTA7hWs6nZKF-189" value="a,b" style="text;html=1;align=center;verticalAlign=middle;resizable=0;points=[];autosize=1;strokeColor=none;fillColor=none;fontFamily=Helvetica;fontSize=18;fontColor=default;" parent="1" vertex="1">
          <mxGeometry x="1483" y="997" width="43" height="34" as="geometry" />
        </mxCell>
        <mxCell id="l0tlugJpZTA7hWs6nZKF-191" value="a,b" style="text;html=1;align=center;verticalAlign=middle;resizable=0;points=[];autosize=1;strokeColor=none;fillColor=none;fontFamily=Helvetica;fontSize=18;fontColor=default;" parent="1" vertex="1">
          <mxGeometry x="1343" y="1286" width="43" height="34" as="geometry" />
        </mxCell>
        <mxCell id="Osh8luNdmJrp-1yalrQi-1" value="" style="edgeStyle=orthogonalEdgeStyle;rounded=0;orthogonalLoop=1;jettySize=auto;html=1;fontFamily=Helvetica;fontSize=18;fontColor=default;" parent="1" source="Osh8luNdmJrp-1yalrQi-5" target="Osh8luNdmJrp-1yalrQi-2" edge="1">
          <mxGeometry relative="1" as="geometry" />
        </mxCell>
        <mxCell id="Osh8luNdmJrp-1yalrQi-2" value="-" style="ellipse;whiteSpace=wrap;html=1;aspect=fixed;hachureGap=4;fillColor=#dae8fc;strokeColor=#6c8ebf;rounded=0;fontSize=18;" parent="1" vertex="1">
          <mxGeometry x="1051" y="1476" width="80" height="80" as="geometry" />
        </mxCell>
        <mxCell id="Osh8luNdmJrp-1yalrQi-4" value="" style="edgeStyle=orthogonalEdgeStyle;rounded=0;orthogonalLoop=1;jettySize=auto;html=1;fontFamily=Helvetica;fontSize=18;fontColor=default;" parent="1" source="Osh8luNdmJrp-1yalrQi-8" target="Osh8luNdmJrp-1yalrQi-5" edge="1">
          <mxGeometry relative="1" as="geometry" />
        </mxCell>
        <mxCell id="Osh8luNdmJrp-1yalrQi-5" value="a" style="ellipse;whiteSpace=wrap;html=1;aspect=fixed;hachureGap=4;fillColor=#dae8fc;strokeColor=#6c8ebf;rounded=0;fontSize=18;" parent="1" vertex="1">
          <mxGeometry x="1211" y="1476" width="80" height="80" as="geometry" />
        </mxCell>
        <mxCell id="Osh8luNdmJrp-1yalrQi-6" value="a" style="text;html=1;align=center;verticalAlign=middle;resizable=0;points=[];autosize=1;strokeColor=none;fillColor=none;fontFamily=Helvetica;fontSize=18;fontColor=default;" parent="1" vertex="1">
          <mxGeometry x="1146" y="1474" width="28" height="34" as="geometry" />
        </mxCell>
        <mxCell id="Osh8luNdmJrp-1yalrQi-7" value="" style="edgeStyle=orthogonalEdgeStyle;rounded=0;orthogonalLoop=1;jettySize=auto;html=1;fontFamily=Helvetica;fontSize=18;fontColor=default;" parent="1" source="Osh8luNdmJrp-1yalrQi-11" target="Osh8luNdmJrp-1yalrQi-8" edge="1">
          <mxGeometry relative="1" as="geometry" />
        </mxCell>
        <mxCell id="Osh8luNdmJrp-1yalrQi-8" value="ab" style="ellipse;whiteSpace=wrap;html=1;aspect=fixed;hachureGap=4;fillColor=#dae8fc;strokeColor=#6c8ebf;rounded=0;fontSize=18;" parent="1" vertex="1">
          <mxGeometry x="1371" y="1476" width="80" height="80" as="geometry" />
        </mxCell>
        <mxCell id="Osh8luNdmJrp-1yalrQi-9" value="b" style="text;html=1;align=center;verticalAlign=middle;resizable=0;points=[];autosize=1;strokeColor=none;fillColor=none;fontFamily=Helvetica;fontSize=18;fontColor=default;" parent="1" vertex="1">
          <mxGeometry x="1312" y="1472" width="28" height="34" as="geometry" />
        </mxCell>
        <mxCell id="Osh8luNdmJrp-1yalrQi-10" style="edgeStyle=orthogonalEdgeStyle;rounded=0;orthogonalLoop=1;jettySize=auto;html=1;fontFamily=Helvetica;fontSize=18;fontColor=default;" parent="1" edge="1" target="Osh8luNdmJrp-1yalrQi-11">
          <mxGeometry relative="1" as="geometry">
            <Array as="points">
              <mxPoint x="1251" y="1614" />
              <mxPoint x="1571" y="1614" />
            </Array>
            <mxPoint x="1251" y="1549.5" as="sourcePoint" />
          </mxGeometry>
        </mxCell>
        <mxCell id="Osh8luNdmJrp-1yalrQi-11" value="ba" style="ellipse;whiteSpace=wrap;html=1;aspect=fixed;hachureGap=4;fillColor=#dae8fc;strokeColor=#6c8ebf;rounded=0;fontSize=18;" parent="1" vertex="1">
          <mxGeometry x="1531" y="1476" width="80" height="80" as="geometry" />
        </mxCell>
        <mxCell id="Osh8luNdmJrp-1yalrQi-12" style="edgeStyle=orthogonalEdgeStyle;rounded=0;orthogonalLoop=1;jettySize=auto;html=1;exitX=1;exitY=0;exitDx=0;exitDy=0;entryX=0.5;entryY=0;entryDx=0;entryDy=0;fontFamily=Helvetica;fontSize=18;fontColor=default;curved=1;" parent="1" source="Osh8luNdmJrp-1yalrQi-8" target="Osh8luNdmJrp-1yalrQi-8" edge="1">
          <mxGeometry relative="1" as="geometry">
            <Array as="points">
              <mxPoint x="1439" y="1451" />
              <mxPoint x="1411" y="1451" />
            </Array>
          </mxGeometry>
        </mxCell>
        <mxCell id="Osh8luNdmJrp-1yalrQi-13" value="b" style="text;html=1;align=center;verticalAlign=middle;resizable=0;points=[];autosize=1;strokeColor=none;fillColor=none;fontFamily=Helvetica;fontSize=18;fontColor=default;" parent="1" vertex="1">
          <mxGeometry x="1410" y="1413" width="28" height="34" as="geometry" />
        </mxCell>
        <mxCell id="Osh8luNdmJrp-1yalrQi-14" value="a" style="text;html=1;align=center;verticalAlign=middle;resizable=0;points=[];autosize=1;strokeColor=none;fillColor=none;fontFamily=Helvetica;fontSize=18;fontColor=default;" parent="1" vertex="1">
          <mxGeometry x="1477" y="1474" width="28" height="34" as="geometry" />
        </mxCell>
        <mxCell id="Osh8luNdmJrp-1yalrQi-15" style="edgeStyle=orthogonalEdgeStyle;rounded=0;orthogonalLoop=1;jettySize=auto;html=1;exitX=1;exitY=0;exitDx=0;exitDy=0;entryX=0.5;entryY=0;entryDx=0;entryDy=0;fontFamily=Helvetica;fontSize=18;fontColor=default;curved=1;" parent="1" source="Osh8luNdmJrp-1yalrQi-5" target="Osh8luNdmJrp-1yalrQi-5" edge="1">
          <mxGeometry relative="1" as="geometry">
            <Array as="points">
              <mxPoint x="1279" y="1445" />
              <mxPoint x="1251" y="1445" />
            </Array>
          </mxGeometry>
        </mxCell>
        <mxCell id="Osh8luNdmJrp-1yalrQi-16" value="a" style="text;html=1;align=center;verticalAlign=middle;resizable=0;points=[];autosize=1;strokeColor=none;fillColor=none;fontFamily=Helvetica;fontSize=18;fontColor=default;" parent="1" vertex="1">
          <mxGeometry x="1247" y="1409" width="28" height="34" as="geometry" />
        </mxCell>
        <mxCell id="Osh8luNdmJrp-1yalrQi-17" style="edgeStyle=orthogonalEdgeStyle;rounded=0;orthogonalLoop=1;jettySize=auto;html=1;entryX=0.5;entryY=0;entryDx=0;entryDy=0;fontFamily=Helvetica;fontSize=18;fontColor=default;exitX=0;exitY=0;exitDx=0;exitDy=0;" parent="1" target="Osh8luNdmJrp-1yalrQi-11" edge="1" source="Osh8luNdmJrp-1yalrQi-8">
          <mxGeometry relative="1" as="geometry">
            <Array as="points">
              <mxPoint x="1383" y="1379" />
              <mxPoint x="1571" y="1379" />
            </Array>
            <mxPoint x="1571" y="1472" as="targetPoint" />
          </mxGeometry>
        </mxCell>
        <mxCell id="Osh8luNdmJrp-1yalrQi-20" value="a" style="text;html=1;align=center;verticalAlign=middle;resizable=0;points=[];autosize=1;strokeColor=none;fillColor=none;fontFamily=Helvetica;fontSize=18;fontColor=default;" parent="1" vertex="1">
          <mxGeometry x="1569" y="1572" width="28" height="34" as="geometry" />
        </mxCell>
        <mxCell id="Osh8luNdmJrp-1yalrQi-21" value="b" style="text;html=1;align=center;verticalAlign=middle;resizable=0;points=[];autosize=1;strokeColor=none;fillColor=none;fontFamily=Helvetica;fontSize=18;fontColor=default;" parent="1" vertex="1">
          <mxGeometry x="1573" y="1429" width="28" height="34" as="geometry" />
        </mxCell>
        <mxCell id="Osh8luNdmJrp-1yalrQi-22" value="" style="ellipse;whiteSpace=wrap;html=1;aspect=fixed;align=center;verticalAlign=middle;fontFamily=Helvetica;fontSize=18;fontColor=default;fillColor=none;gradientColor=none;strokeColor=#000000;" parent="1" vertex="1">
          <mxGeometry x="1058" y="1482.5" width="67" height="67" as="geometry" />
        </mxCell>
        <mxCell id="Osh8luNdmJrp-1yalrQi-23" value="" style="ellipse;whiteSpace=wrap;html=1;aspect=fixed;align=center;verticalAlign=middle;fontFamily=Helvetica;fontSize=18;fontColor=default;fillColor=none;gradientColor=none;strokeColor=#000000;" parent="1" vertex="1">
          <mxGeometry x="1377.5" y="1482.5" width="67" height="67" as="geometry" />
        </mxCell>
        <mxCell id="Osh8luNdmJrp-1yalrQi-29" value="" style="edgeStyle=orthogonalEdgeStyle;rounded=0;orthogonalLoop=1;jettySize=auto;html=1;fontFamily=Helvetica;fontSize=18;fontColor=default;" parent="1" source="Osh8luNdmJrp-1yalrQi-24" target="Osh8luNdmJrp-1yalrQi-28" edge="1">
          <mxGeometry relative="1" as="geometry" />
        </mxCell>
        <mxCell id="Osh8luNdmJrp-1yalrQi-32" value="" style="edgeStyle=orthogonalEdgeStyle;rounded=0;orthogonalLoop=1;jettySize=auto;html=1;fontFamily=Helvetica;fontSize=18;fontColor=default;" parent="1" source="Osh8luNdmJrp-1yalrQi-24" target="Osh8luNdmJrp-1yalrQi-31" edge="1">
          <mxGeometry relative="1" as="geometry" />
        </mxCell>
        <mxCell id="Osh8luNdmJrp-1yalrQi-24" value="-0" style="ellipse;whiteSpace=wrap;html=1;aspect=fixed;hachureGap=4;fillColor=#dae8fc;strokeColor=#6c8ebf;rounded=0;fontSize=18;" parent="1" vertex="1">
          <mxGeometry x="1930.97" y="1437" width="80" height="80" as="geometry" />
        </mxCell>
        <mxCell id="Osh8luNdmJrp-1yalrQi-25" style="edgeStyle=orthogonalEdgeStyle;rounded=0;orthogonalLoop=1;jettySize=auto;html=1;fontSize=18;entryX=0;entryY=0.5;entryDx=0;entryDy=0;" parent="1" target="Osh8luNdmJrp-1yalrQi-24" edge="1">
          <mxGeometry relative="1" as="geometry">
            <mxPoint x="1873" y="1477" as="sourcePoint" />
            <mxPoint x="1894.97" y="1108" as="targetPoint" />
          </mxGeometry>
        </mxCell>
        <mxCell id="Osh8luNdmJrp-1yalrQi-35" value="" style="edgeStyle=orthogonalEdgeStyle;rounded=0;orthogonalLoop=1;jettySize=auto;html=1;fontFamily=Helvetica;fontSize=18;fontColor=default;" parent="1" source="Osh8luNdmJrp-1yalrQi-28" target="Osh8luNdmJrp-1yalrQi-34" edge="1">
          <mxGeometry relative="1" as="geometry" />
        </mxCell>
        <mxCell id="Osh8luNdmJrp-1yalrQi-38" value="" style="edgeStyle=orthogonalEdgeStyle;rounded=0;orthogonalLoop=1;jettySize=auto;html=1;fontFamily=Helvetica;fontSize=18;fontColor=default;" parent="1" source="Osh8luNdmJrp-1yalrQi-28" target="Osh8luNdmJrp-1yalrQi-37" edge="1">
          <mxGeometry relative="1" as="geometry" />
        </mxCell>
        <mxCell id="Osh8luNdmJrp-1yalrQi-28" value="1Fa" style="ellipse;whiteSpace=wrap;html=1;aspect=fixed;hachureGap=4;fillColor=#dae8fc;strokeColor=#6c8ebf;rounded=0;fontSize=18;" parent="1" vertex="1">
          <mxGeometry x="1930.97" y="1277" width="80" height="80" as="geometry" />
        </mxCell>
        <mxCell id="Osh8luNdmJrp-1yalrQi-30" value="a" style="text;html=1;align=center;verticalAlign=middle;resizable=0;points=[];autosize=1;strokeColor=none;fillColor=none;fontFamily=Helvetica;fontSize=18;fontColor=default;" parent="1" vertex="1">
          <mxGeometry x="1930.97" y="1390" width="28" height="34" as="geometry" />
        </mxCell>
        <mxCell id="Osh8luNdmJrp-1yalrQi-84" value="" style="edgeStyle=orthogonalEdgeStyle;rounded=0;orthogonalLoop=1;jettySize=auto;html=1;fontFamily=Helvetica;fontSize=18;fontColor=default;" parent="1" source="Osh8luNdmJrp-1yalrQi-31" target="Osh8luNdmJrp-1yalrQi-83" edge="1">
          <mxGeometry relative="1" as="geometry" />
        </mxCell>
        <mxCell id="Osh8luNdmJrp-1yalrQi-87" value="" style="edgeStyle=orthogonalEdgeStyle;rounded=0;orthogonalLoop=1;jettySize=auto;html=1;fontFamily=Helvetica;fontSize=18;fontColor=default;" parent="1" source="Osh8luNdmJrp-1yalrQi-31" target="Osh8luNdmJrp-1yalrQi-86" edge="1">
          <mxGeometry relative="1" as="geometry" />
        </mxCell>
        <mxCell id="Osh8luNdmJrp-1yalrQi-31" value="1" style="ellipse;whiteSpace=wrap;html=1;aspect=fixed;hachureGap=4;fillColor=#dae8fc;strokeColor=#6c8ebf;rounded=0;fontSize=18;" parent="1" vertex="1">
          <mxGeometry x="2090.97" y="1437" width="80" height="80" as="geometry" />
        </mxCell>
        <mxCell id="Osh8luNdmJrp-1yalrQi-33" value="b" style="text;html=1;align=center;verticalAlign=middle;resizable=0;points=[];autosize=1;strokeColor=none;fillColor=none;fontFamily=Helvetica;fontSize=18;fontColor=default;" parent="1" vertex="1">
          <mxGeometry x="2027.97" y="1437" width="28" height="34" as="geometry" />
        </mxCell>
        <mxCell id="Osh8luNdmJrp-1yalrQi-47" value="" style="edgeStyle=orthogonalEdgeStyle;rounded=0;orthogonalLoop=1;jettySize=auto;html=1;fontFamily=Helvetica;fontSize=18;fontColor=default;" parent="1" source="Osh8luNdmJrp-1yalrQi-34" target="Osh8luNdmJrp-1yalrQi-46" edge="1">
          <mxGeometry relative="1" as="geometry" />
        </mxCell>
        <mxCell id="Osh8luNdmJrp-1yalrQi-50" value="" style="edgeStyle=orthogonalEdgeStyle;rounded=0;orthogonalLoop=1;jettySize=auto;html=1;fontFamily=Helvetica;fontSize=18;fontColor=default;" parent="1" source="Osh8luNdmJrp-1yalrQi-34" target="Osh8luNdmJrp-1yalrQi-49" edge="1">
          <mxGeometry relative="1" as="geometry" />
        </mxCell>
        <mxCell id="Osh8luNdmJrp-1yalrQi-34" value="2Fa" style="ellipse;whiteSpace=wrap;html=1;aspect=fixed;hachureGap=4;fillColor=#dae8fc;strokeColor=#6c8ebf;rounded=0;fontSize=18;" parent="1" vertex="1">
          <mxGeometry x="1930.97" y="1121" width="80" height="80" as="geometry" />
        </mxCell>
        <mxCell id="Osh8luNdmJrp-1yalrQi-36" value="a" style="text;html=1;align=center;verticalAlign=middle;resizable=0;points=[];autosize=1;strokeColor=none;fillColor=none;fontFamily=Helvetica;fontSize=18;fontColor=default;" parent="1" vertex="1">
          <mxGeometry x="1932.97" y="1229" width="28" height="34" as="geometry" />
        </mxCell>
        <mxCell id="Osh8luNdmJrp-1yalrQi-41" value="" style="edgeStyle=orthogonalEdgeStyle;rounded=0;orthogonalLoop=1;jettySize=auto;html=1;fontFamily=Helvetica;fontSize=18;fontColor=default;" parent="1" source="Osh8luNdmJrp-1yalrQi-37" target="Osh8luNdmJrp-1yalrQi-40" edge="1">
          <mxGeometry relative="1" as="geometry" />
        </mxCell>
        <mxCell id="Osh8luNdmJrp-1yalrQi-44" value="" style="edgeStyle=orthogonalEdgeStyle;rounded=0;orthogonalLoop=1;jettySize=auto;html=1;fontFamily=Helvetica;fontSize=18;fontColor=default;" parent="1" source="Osh8luNdmJrp-1yalrQi-37" target="Osh8luNdmJrp-1yalrQi-43" edge="1">
          <mxGeometry relative="1" as="geometry" />
        </mxCell>
        <mxCell id="Osh8luNdmJrp-1yalrQi-37" value="1ab" style="ellipse;whiteSpace=wrap;html=1;aspect=fixed;hachureGap=4;fillColor=#dae8fc;strokeColor=#6c8ebf;rounded=0;fontSize=18;" parent="1" vertex="1">
          <mxGeometry x="2090.97" y="1277" width="80" height="80" as="geometry" />
        </mxCell>
        <mxCell id="Osh8luNdmJrp-1yalrQi-39" value="b" style="text;html=1;align=center;verticalAlign=middle;resizable=0;points=[];autosize=1;strokeColor=none;fillColor=none;fontFamily=Helvetica;fontSize=18;fontColor=default;" parent="1" vertex="1">
          <mxGeometry x="2020.97" y="1282" width="28" height="34" as="geometry" />
        </mxCell>
        <mxCell id="Osh8luNdmJrp-1yalrQi-76" value="" style="edgeStyle=orthogonalEdgeStyle;rounded=0;orthogonalLoop=1;jettySize=auto;html=1;fontFamily=Helvetica;fontSize=18;fontColor=default;" parent="1" source="Osh8luNdmJrp-1yalrQi-40" target="Osh8luNdmJrp-1yalrQi-75" edge="1">
          <mxGeometry relative="1" as="geometry" />
        </mxCell>
        <mxCell id="Osh8luNdmJrp-1yalrQi-40" value="2ab" style="ellipse;whiteSpace=wrap;html=1;aspect=fixed;hachureGap=4;fillColor=#dae8fc;strokeColor=#6c8ebf;rounded=0;fontSize=18;" parent="1" vertex="1">
          <mxGeometry x="2250.97" y="1277" width="80" height="80" as="geometry" />
        </mxCell>
        <mxCell id="Osh8luNdmJrp-1yalrQi-42" value="b" style="text;html=1;align=center;verticalAlign=middle;resizable=0;points=[];autosize=1;strokeColor=none;fillColor=none;fontFamily=Helvetica;fontSize=18;fontColor=default;" parent="1" vertex="1">
          <mxGeometry x="2189.97" y="1281" width="28" height="34" as="geometry" />
        </mxCell>
        <mxCell id="Osh8luNdmJrp-1yalrQi-68" style="edgeStyle=orthogonalEdgeStyle;rounded=0;orthogonalLoop=1;jettySize=auto;html=1;entryX=1;entryY=1;entryDx=0;entryDy=0;fontFamily=Helvetica;fontSize=18;fontColor=default;" parent="1" source="Osh8luNdmJrp-1yalrQi-43" target="Osh8luNdmJrp-1yalrQi-46" edge="1">
          <mxGeometry relative="1" as="geometry">
            <Array as="points">
              <mxPoint x="2107" y="1029" />
            </Array>
          </mxGeometry>
        </mxCell>
        <mxCell id="Osh8luNdmJrp-1yalrQi-70" style="edgeStyle=orthogonalEdgeStyle;rounded=0;orthogonalLoop=1;jettySize=auto;html=1;entryX=0;entryY=0.5;entryDx=0;entryDy=0;fontFamily=Helvetica;fontSize=18;fontColor=default;" parent="1" source="Osh8luNdmJrp-1yalrQi-43" target="Osh8luNdmJrp-1yalrQi-49" edge="1">
          <mxGeometry relative="1" as="geometry">
            <Array as="points">
              <mxPoint x="2131" y="825" />
              <mxPoint x="1751" y="825" />
              <mxPoint x="1751" y="1161" />
            </Array>
          </mxGeometry>
        </mxCell>
        <mxCell id="Osh8luNdmJrp-1yalrQi-43" value="2Fba" style="ellipse;whiteSpace=wrap;html=1;aspect=fixed;hachureGap=4;fillColor=#dae8fc;strokeColor=#6c8ebf;rounded=0;fontSize=18;" parent="1" vertex="1">
          <mxGeometry x="2090.97" y="1117" width="80" height="80" as="geometry" />
        </mxCell>
        <mxCell id="Osh8luNdmJrp-1yalrQi-45" value="a" style="text;html=1;align=center;verticalAlign=middle;resizable=0;points=[];autosize=1;strokeColor=none;fillColor=none;fontFamily=Helvetica;fontSize=18;fontColor=default;" parent="1" vertex="1">
          <mxGeometry x="2102.97" y="1229" width="28" height="34" as="geometry" />
        </mxCell>
        <mxCell id="Osh8luNdmJrp-1yalrQi-64" style="edgeStyle=orthogonalEdgeStyle;rounded=0;orthogonalLoop=1;jettySize=auto;html=1;entryX=0;entryY=0.5;entryDx=0;entryDy=0;fontFamily=Helvetica;fontSize=18;fontColor=default;" parent="1" source="Osh8luNdmJrp-1yalrQi-46" target="Osh8luNdmJrp-1yalrQi-28" edge="1">
          <mxGeometry relative="1" as="geometry">
            <Array as="points">
              <mxPoint x="1971" y="851" />
              <mxPoint x="1680" y="851" />
              <mxPoint x="1680" y="1317" />
            </Array>
          </mxGeometry>
        </mxCell>
        <mxCell id="Osh8luNdmJrp-1yalrQi-66" style="edgeStyle=orthogonalEdgeStyle;rounded=0;orthogonalLoop=1;jettySize=auto;html=1;entryX=0;entryY=0;entryDx=0;entryDy=0;fontFamily=Helvetica;fontSize=18;fontColor=default;" parent="1" source="Osh8luNdmJrp-1yalrQi-46" target="Osh8luNdmJrp-1yalrQi-37" edge="1">
          <mxGeometry relative="1" as="geometry">
            <Array as="points">
              <mxPoint x="2064" y="1001" />
              <mxPoint x="2064" y="1289" />
            </Array>
          </mxGeometry>
        </mxCell>
        <mxCell id="Osh8luNdmJrp-1yalrQi-46" value="0a" style="ellipse;whiteSpace=wrap;html=1;aspect=fixed;hachureGap=4;fillColor=#dae8fc;strokeColor=#6c8ebf;rounded=0;fontSize=18;" parent="1" vertex="1">
          <mxGeometry x="1930.97" y="961" width="80" height="80" as="geometry" />
        </mxCell>
        <mxCell id="Osh8luNdmJrp-1yalrQi-48" value="a" style="text;html=1;align=center;verticalAlign=middle;resizable=0;points=[];autosize=1;strokeColor=none;fillColor=none;fontFamily=Helvetica;fontSize=18;fontColor=default;" parent="1" vertex="1">
          <mxGeometry x="1937.97" y="1077" width="28" height="34" as="geometry" />
        </mxCell>
        <mxCell id="Osh8luNdmJrp-1yalrQi-53" value="" style="edgeStyle=orthogonalEdgeStyle;rounded=0;orthogonalLoop=1;jettySize=auto;html=1;fontFamily=Helvetica;fontSize=18;fontColor=default;" parent="1" source="Osh8luNdmJrp-1yalrQi-49" target="Osh8luNdmJrp-1yalrQi-52" edge="1">
          <mxGeometry relative="1" as="geometry" />
        </mxCell>
        <mxCell id="Osh8luNdmJrp-1yalrQi-58" style="edgeStyle=orthogonalEdgeStyle;rounded=0;orthogonalLoop=1;jettySize=auto;html=1;entryX=1;entryY=1;entryDx=0;entryDy=0;fontFamily=Helvetica;fontSize=18;fontColor=default;" parent="1" source="Osh8luNdmJrp-1yalrQi-49" target="Osh8luNdmJrp-1yalrQi-37" edge="1">
          <mxGeometry relative="1" as="geometry">
            <Array as="points">
              <mxPoint x="1811" y="1616" />
              <mxPoint x="2220" y="1616" />
              <mxPoint x="2220" y="1345" />
            </Array>
          </mxGeometry>
        </mxCell>
        <mxCell id="Osh8luNdmJrp-1yalrQi-49" value="0ab" style="ellipse;whiteSpace=wrap;html=1;aspect=fixed;hachureGap=4;fillColor=#dae8fc;strokeColor=#6c8ebf;rounded=0;fontSize=18;" parent="1" vertex="1">
          <mxGeometry x="1770.97" y="1121" width="80" height="80" as="geometry" />
        </mxCell>
        <mxCell id="Osh8luNdmJrp-1yalrQi-51" value="b" style="text;html=1;align=center;verticalAlign=middle;resizable=0;points=[];autosize=1;strokeColor=none;fillColor=none;fontFamily=Helvetica;fontSize=18;fontColor=default;" parent="1" vertex="1">
          <mxGeometry x="1891.97" y="1128" width="28" height="34" as="geometry" />
        </mxCell>
        <mxCell id="Osh8luNdmJrp-1yalrQi-60" style="rounded=0;orthogonalLoop=1;jettySize=auto;html=1;exitX=1;exitY=1;exitDx=0;exitDy=0;entryX=0;entryY=0;entryDx=0;entryDy=0;fontFamily=Helvetica;fontSize=18;fontColor=default;" parent="1" source="Osh8luNdmJrp-1yalrQi-52" target="Osh8luNdmJrp-1yalrQi-34" edge="1">
          <mxGeometry relative="1" as="geometry" />
        </mxCell>
        <mxCell id="Osh8luNdmJrp-1yalrQi-62" style="edgeStyle=orthogonalEdgeStyle;rounded=0;orthogonalLoop=1;jettySize=auto;html=1;fontFamily=Helvetica;fontSize=18;fontColor=default;entryX=0;entryY=0;entryDx=0;entryDy=0;" parent="1" source="Osh8luNdmJrp-1yalrQi-52" target="Osh8luNdmJrp-1yalrQi-37" edge="1">
          <mxGeometry relative="1" as="geometry">
            <Array as="points">
              <mxPoint x="1811" y="884" />
              <mxPoint x="2070" y="884" />
              <mxPoint x="2070" y="1289" />
            </Array>
          </mxGeometry>
        </mxCell>
        <mxCell id="Osh8luNdmJrp-1yalrQi-52" value="1Fba" style="ellipse;whiteSpace=wrap;html=1;aspect=fixed;hachureGap=4;fillColor=#dae8fc;strokeColor=#6c8ebf;rounded=0;fontSize=18;" parent="1" vertex="1">
          <mxGeometry x="1770.97" y="961" width="80" height="80" as="geometry" />
        </mxCell>
        <mxCell id="Osh8luNdmJrp-1yalrQi-56" value="a" style="text;html=1;align=center;verticalAlign=middle;resizable=0;points=[];autosize=1;strokeColor=none;fillColor=none;fontFamily=Helvetica;fontSize=18;fontColor=default;" parent="1" vertex="1">
          <mxGeometry x="1786" y="1076" width="28" height="34" as="geometry" />
        </mxCell>
        <mxCell id="Osh8luNdmJrp-1yalrQi-59" value="a" style="text;html=1;align=center;verticalAlign=middle;resizable=0;points=[];autosize=1;strokeColor=none;fillColor=none;fontFamily=Helvetica;fontSize=18;fontColor=default;" parent="1" vertex="1">
          <mxGeometry x="1814" y="1209" width="28" height="34" as="geometry" />
        </mxCell>
        <mxCell id="Osh8luNdmJrp-1yalrQi-61" value="a" style="text;html=1;align=center;verticalAlign=middle;resizable=0;points=[];autosize=1;strokeColor=none;fillColor=none;fontFamily=Helvetica;fontSize=18;fontColor=default;" parent="1" vertex="1">
          <mxGeometry x="1853" y="1015" width="28" height="34" as="geometry" />
        </mxCell>
        <mxCell id="Osh8luNdmJrp-1yalrQi-63" value="b" style="text;html=1;align=center;verticalAlign=middle;resizable=0;points=[];autosize=1;strokeColor=none;fillColor=none;fontFamily=Helvetica;fontSize=18;fontColor=default;" parent="1" vertex="1">
          <mxGeometry x="1781" y="917" width="28" height="34" as="geometry" />
        </mxCell>
        <mxCell id="Osh8luNdmJrp-1yalrQi-65" value="a" style="text;html=1;align=center;verticalAlign=middle;resizable=0;points=[];autosize=1;strokeColor=none;fillColor=none;fontFamily=Helvetica;fontSize=18;fontColor=default;" parent="1" vertex="1">
          <mxGeometry x="1944" y="926" width="28" height="34" as="geometry" />
        </mxCell>
        <mxCell id="Osh8luNdmJrp-1yalrQi-67" value="b" style="text;html=1;align=center;verticalAlign=middle;resizable=0;points=[];autosize=1;strokeColor=none;fillColor=none;fontFamily=Helvetica;fontSize=18;fontColor=default;" parent="1" vertex="1">
          <mxGeometry x="2012" y="964" width="28" height="34" as="geometry" />
        </mxCell>
        <mxCell id="Osh8luNdmJrp-1yalrQi-69" value="a" style="text;html=1;align=center;verticalAlign=middle;resizable=0;points=[];autosize=1;strokeColor=none;fillColor=none;fontFamily=Helvetica;fontSize=18;fontColor=default;" parent="1" vertex="1">
          <mxGeometry x="2086" y="1080" width="28" height="34" as="geometry" />
        </mxCell>
        <mxCell id="Osh8luNdmJrp-1yalrQi-71" value="b" style="text;html=1;align=center;verticalAlign=middle;resizable=0;points=[];autosize=1;strokeColor=none;fillColor=none;fontFamily=Helvetica;fontSize=18;fontColor=default;" parent="1" vertex="1">
          <mxGeometry x="2136" y="1091" width="28" height="34" as="geometry" />
        </mxCell>
        <mxCell id="Osh8luNdmJrp-1yalrQi-73" style="edgeStyle=orthogonalEdgeStyle;rounded=0;orthogonalLoop=1;jettySize=auto;html=1;entryX=0.057;entryY=0.8;entryDx=0;entryDy=0;entryPerimeter=0;fontFamily=Helvetica;fontSize=18;fontColor=default;" parent="1" source="Osh8luNdmJrp-1yalrQi-40" target="Osh8luNdmJrp-1yalrQi-49" edge="1">
          <mxGeometry relative="1" as="geometry">
            <Array as="points">
              <mxPoint x="2291" y="1592" />
              <mxPoint x="1776" y="1592" />
            </Array>
          </mxGeometry>
        </mxCell>
        <mxCell id="Osh8luNdmJrp-1yalrQi-74" value="b" style="text;html=1;align=center;verticalAlign=middle;resizable=0;points=[];autosize=1;strokeColor=none;fillColor=none;fontFamily=Helvetica;fontSize=18;fontColor=default;" parent="1" vertex="1">
          <mxGeometry x="2262" y="1357" width="28" height="34" as="geometry" />
        </mxCell>
        <mxCell id="Osh8luNdmJrp-1yalrQi-79" style="edgeStyle=orthogonalEdgeStyle;rounded=0;orthogonalLoop=1;jettySize=auto;html=1;entryX=0;entryY=1;entryDx=0;entryDy=0;fontFamily=Helvetica;fontSize=18;fontColor=default;" parent="1" source="Osh8luNdmJrp-1yalrQi-75" target="Osh8luNdmJrp-1yalrQi-28" edge="1">
          <mxGeometry relative="1" as="geometry">
            <Array as="points">
              <mxPoint x="2361" y="1157" />
              <mxPoint x="2361" y="1562" />
              <mxPoint x="1855" y="1562" />
              <mxPoint x="1855" y="1345" />
            </Array>
          </mxGeometry>
        </mxCell>
        <mxCell id="Osh8luNdmJrp-1yalrQi-81" style="rounded=0;orthogonalLoop=1;jettySize=auto;html=1;exitX=0;exitY=1;exitDx=0;exitDy=0;entryX=1;entryY=0;entryDx=0;entryDy=0;fontFamily=Helvetica;fontSize=18;fontColor=default;" parent="1" source="Osh8luNdmJrp-1yalrQi-75" target="Osh8luNdmJrp-1yalrQi-37" edge="1">
          <mxGeometry relative="1" as="geometry" />
        </mxCell>
        <mxCell id="Osh8luNdmJrp-1yalrQi-75" value="0ba" style="ellipse;whiteSpace=wrap;html=1;aspect=fixed;hachureGap=4;fillColor=#dae8fc;strokeColor=#6c8ebf;rounded=0;fontSize=18;" parent="1" vertex="1">
          <mxGeometry x="2250.97" y="1117" width="80" height="80" as="geometry" />
        </mxCell>
        <mxCell id="Osh8luNdmJrp-1yalrQi-78" value="a" style="text;html=1;align=center;verticalAlign=middle;resizable=0;points=[];autosize=1;strokeColor=none;fillColor=none;fontFamily=Helvetica;fontSize=18;fontColor=default;" parent="1" vertex="1">
          <mxGeometry x="2291" y="1235" width="28" height="34" as="geometry" />
        </mxCell>
        <mxCell id="Osh8luNdmJrp-1yalrQi-80" value="a" style="text;html=1;align=center;verticalAlign=middle;resizable=0;points=[];autosize=1;strokeColor=none;fillColor=none;fontFamily=Helvetica;fontSize=18;fontColor=default;" parent="1" vertex="1">
          <mxGeometry x="2331" y="1125" width="28" height="34" as="geometry" />
        </mxCell>
        <mxCell id="Osh8luNdmJrp-1yalrQi-82" value="b" style="text;html=1;align=center;verticalAlign=middle;resizable=0;points=[];autosize=1;strokeColor=none;fillColor=none;fontFamily=Helvetica;fontSize=18;fontColor=default;" parent="1" vertex="1">
          <mxGeometry x="2215" y="1174" width="28" height="34" as="geometry" />
        </mxCell>
        <mxCell id="Osh8luNdmJrp-1yalrQi-91" value="" style="edgeStyle=orthogonalEdgeStyle;rounded=0;orthogonalLoop=1;jettySize=auto;html=1;fontFamily=Helvetica;fontSize=18;fontColor=default;" parent="1" source="Osh8luNdmJrp-1yalrQi-83" target="Osh8luNdmJrp-1yalrQi-90" edge="1">
          <mxGeometry relative="1" as="geometry" />
        </mxCell>
        <mxCell id="Osh8luNdmJrp-1yalrQi-83" value="2F" style="ellipse;whiteSpace=wrap;html=1;aspect=fixed;hachureGap=4;fillColor=#dae8fc;strokeColor=#6c8ebf;rounded=0;fontSize=18;" parent="1" vertex="1">
          <mxGeometry x="2090.97" y="1642" width="80" height="80" as="geometry" />
        </mxCell>
        <mxCell id="Osh8luNdmJrp-1yalrQi-93" style="edgeStyle=orthogonalEdgeStyle;rounded=0;orthogonalLoop=1;jettySize=auto;html=1;entryX=0.5;entryY=1;entryDx=0;entryDy=0;fontFamily=Helvetica;fontSize=18;fontColor=default;" parent="1" source="Osh8luNdmJrp-1yalrQi-86" target="Osh8luNdmJrp-1yalrQi-90" edge="1">
          <mxGeometry relative="1" as="geometry">
            <Array as="points">
              <mxPoint x="2276" y="1761" />
              <mxPoint x="1971" y="1761" />
            </Array>
          </mxGeometry>
        </mxCell>
        <mxCell id="Osh8luNdmJrp-1yalrQi-86" value="2" style="ellipse;whiteSpace=wrap;html=1;aspect=fixed;hachureGap=4;fillColor=#dae8fc;strokeColor=#6c8ebf;rounded=0;fontSize=18;" parent="1" vertex="1">
          <mxGeometry x="2236" y="1642" width="80" height="80" as="geometry" />
        </mxCell>
        <mxCell id="Osh8luNdmJrp-1yalrQi-88" value="b" style="text;html=1;align=center;verticalAlign=middle;resizable=0;points=[];autosize=1;strokeColor=none;fillColor=none;fontFamily=Helvetica;fontSize=18;fontColor=default;" parent="1" vertex="1">
          <mxGeometry x="2171" y="1440" width="28" height="34" as="geometry" />
        </mxCell>
        <mxCell id="Osh8luNdmJrp-1yalrQi-89" value="a" style="text;html=1;align=center;verticalAlign=middle;resizable=0;points=[];autosize=1;strokeColor=none;fillColor=none;fontFamily=Helvetica;fontSize=18;fontColor=default;" parent="1" vertex="1">
          <mxGeometry x="2132" y="1519" width="28" height="34" as="geometry" />
        </mxCell>
        <mxCell id="Osh8luNdmJrp-1yalrQi-95" style="rounded=0;orthogonalLoop=1;jettySize=auto;html=1;exitX=1;exitY=0;exitDx=0;exitDy=0;entryX=0;entryY=1;entryDx=0;entryDy=0;fontFamily=Helvetica;fontSize=18;fontColor=default;" parent="1" source="Osh8luNdmJrp-1yalrQi-90" target="Osh8luNdmJrp-1yalrQi-31" edge="1">
          <mxGeometry relative="1" as="geometry" />
        </mxCell>
        <mxCell id="Osh8luNdmJrp-1yalrQi-98" value="" style="edgeStyle=orthogonalEdgeStyle;rounded=0;orthogonalLoop=1;jettySize=auto;html=1;fontFamily=Helvetica;fontSize=18;fontColor=default;" parent="1" source="Osh8luNdmJrp-1yalrQi-90" target="Osh8luNdmJrp-1yalrQi-97" edge="1">
          <mxGeometry relative="1" as="geometry" />
        </mxCell>
        <mxCell id="Osh8luNdmJrp-1yalrQi-90" value="0" style="ellipse;whiteSpace=wrap;html=1;aspect=fixed;hachureGap=4;fillColor=#dae8fc;strokeColor=#6c8ebf;rounded=0;fontSize=18;" parent="1" vertex="1">
          <mxGeometry x="1906.9699999999998" y="1657" width="80" height="80" as="geometry" />
        </mxCell>
        <mxCell id="Osh8luNdmJrp-1yalrQi-92" value="a,b" style="text;html=1;align=center;verticalAlign=middle;resizable=0;points=[];autosize=1;strokeColor=none;fillColor=none;fontFamily=Helvetica;fontSize=18;fontColor=default;" parent="1" vertex="1">
          <mxGeometry x="2036" y="1650" width="43" height="34" as="geometry" />
        </mxCell>
        <mxCell id="Osh8luNdmJrp-1yalrQi-94" value="a,b" style="text;html=1;align=center;verticalAlign=middle;resizable=0;points=[];autosize=1;strokeColor=none;fillColor=none;fontFamily=Helvetica;fontSize=18;fontColor=default;" parent="1" vertex="1">
          <mxGeometry x="2270" y="1732" width="43" height="34" as="geometry" />
        </mxCell>
        <mxCell id="Osh8luNdmJrp-1yalrQi-96" value="b" style="text;html=1;align=center;verticalAlign=middle;resizable=0;points=[];autosize=1;strokeColor=none;fillColor=none;fontFamily=Helvetica;fontSize=18;fontColor=default;" parent="1" vertex="1">
          <mxGeometry x="1960" y="1624" width="28" height="34" as="geometry" />
        </mxCell>
        <mxCell id="Osh8luNdmJrp-1yalrQi-102" style="edgeStyle=orthogonalEdgeStyle;rounded=0;orthogonalLoop=1;jettySize=auto;html=1;entryX=0.5;entryY=1;entryDx=0;entryDy=0;fontFamily=Helvetica;fontSize=18;fontColor=default;" parent="1" source="Osh8luNdmJrp-1yalrQi-97" target="Osh8luNdmJrp-1yalrQi-83" edge="1">
          <mxGeometry relative="1" as="geometry">
            <Array as="points">
              <mxPoint x="1787" y="1799" />
              <mxPoint x="2131" y="1799" />
            </Array>
          </mxGeometry>
        </mxCell>
        <mxCell id="Osh8luNdmJrp-1yalrQi-97" value="1F" style="ellipse;whiteSpace=wrap;html=1;aspect=fixed;hachureGap=4;fillColor=#dae8fc;strokeColor=#6c8ebf;rounded=0;fontSize=18;" parent="1" vertex="1">
          <mxGeometry x="1746.9699999999998" y="1657" width="80" height="80" as="geometry" />
        </mxCell>
        <mxCell id="Osh8luNdmJrp-1yalrQi-99" value="a" style="text;html=1;align=center;verticalAlign=middle;resizable=0;points=[];autosize=1;strokeColor=none;fillColor=none;fontFamily=Helvetica;fontSize=18;fontColor=default;" parent="1" vertex="1">
          <mxGeometry x="1870" y="1660" width="28" height="34" as="geometry" />
        </mxCell>
        <mxCell id="Osh8luNdmJrp-1yalrQi-100" style="rounded=0;orthogonalLoop=1;jettySize=auto;html=1;exitX=1;exitY=0;exitDx=0;exitDy=0;entryX=-0.006;entryY=0.694;entryDx=0;entryDy=0;entryPerimeter=0;fontFamily=Helvetica;fontSize=18;fontColor=default;" parent="1" source="Osh8luNdmJrp-1yalrQi-97" target="Osh8luNdmJrp-1yalrQi-31" edge="1">
          <mxGeometry relative="1" as="geometry" />
        </mxCell>
        <mxCell id="Osh8luNdmJrp-1yalrQi-101" value="b" style="text;html=1;align=center;verticalAlign=middle;resizable=0;points=[];autosize=1;strokeColor=none;fillColor=none;fontFamily=Helvetica;fontSize=18;fontColor=default;" parent="1" vertex="1">
          <mxGeometry x="1806" y="1627" width="28" height="34" as="geometry" />
        </mxCell>
        <mxCell id="Osh8luNdmJrp-1yalrQi-103" value="a" style="text;html=1;align=center;verticalAlign=middle;resizable=0;points=[];autosize=1;strokeColor=none;fillColor=none;fontFamily=Helvetica;fontSize=18;fontColor=default;" parent="1" vertex="1">
          <mxGeometry x="1791" y="1743" width="28" height="34" as="geometry" />
        </mxCell>
        <mxCell id="EhOK8_lpEGv8_tV3Lrf--1" style="rounded=0;orthogonalLoop=1;jettySize=auto;html=1;fontSize=18;entryX=0;entryY=0.5;entryDx=0;entryDy=0;" edge="1" parent="1">
          <mxGeometry relative="1" as="geometry">
            <mxPoint x="1170" y="1587" as="sourcePoint" />
            <mxPoint x="1222" y="1543" as="targetPoint" />
          </mxGeometry>
        </mxCell>
        <mxCell id="EhOK8_lpEGv8_tV3Lrf--2" style="rounded=0;orthogonalLoop=1;jettySize=auto;html=1;fontSize=18;entryX=0;entryY=0.5;entryDx=0;entryDy=0;" edge="1" parent="1">
          <mxGeometry relative="1" as="geometry">
            <mxPoint x="1653" y="1569" as="sourcePoint" />
            <mxPoint x="1609" y="1539" as="targetPoint" />
          </mxGeometry>
        </mxCell>
      </root>
    </mxGraphModel>
  </diagram>
</mxfile>
